<svg xmlns="http://www.w3.org/2000/svg" xmlns:xlink="http://www.w3.org/1999/xlink" viewBox="0 0 978 570"><defs><style>.cls-1{fill:none;}.cls-2{clip-path:url(#clip-path);}.cls-3{fill:url(#Dégradé_sans_nom_121);}.cls-4{fill:url(#Dégradé_sans_nom_109);}.cls-5{fill:#807b65;}.cls-6{fill:url(#Dégradé_sans_nom_109-2);}.cls-7{fill:url(#Dégradé_sans_nom_109-3);}.cls-8{fill:url(#Dégradé_sans_nom_109-4);}.cls-9{fill:url(#Dégradé_sans_nom_109-5);}.cls-10{fill:url(#Dégradé_sans_nom_109-6);}.cls-11{fill:url(#Dégradé_sans_nom_109-7);}.cls-12{fill:url(#Dégradé_sans_nom_109-8);}.cls-13{fill:url(#Dégradé_sans_nom_109-9);}.cls-14{clip-path:url(#clip-path-2);}.cls-15{fill:url(#Dégradé_sans_nom_89);}.cls-16{clip-path:url(#clip-path-3);}.cls-17{fill:url(#Dégradé_sans_nom_89-2);}.cls-18{clip-path:url(#clip-path-4);}.cls-19{fill:url(#Dégradé_sans_nom_89-3);}.cls-20{clip-path:url(#clip-path-5);}.cls-21{fill:url(#Dégradé_sans_nom_121-2);}.cls-22{clip-path:url(#clip-path-6);}.cls-23{fill:url(#Dégradé_sans_nom_141);}</style><clipPath id="clip-path"><rect class="cls-1" x="-0.15" y="-29.45" width="960" height="600" transform="translate(959.7 541.11) rotate(-180)"/></clipPath><linearGradient id="Dégradé_sans_nom_121" x1="368.16" y1="93.34" x2="-370.46" y2="2122.66" gradientUnits="userSpaceOnUse"><stop offset="0" stop-color="#c7b299"/><stop offset="0.05" stop-color="#a5b391"/><stop offset="0.11" stop-color="#7db388"/><stop offset="0.17" stop-color="#5cb480"/><stop offset="0.24" stop-color="#43b47a"/><stop offset="0.3" stop-color="#30b576"/><stop offset="0.37" stop-color="#26b574"/><stop offset="0.45" stop-color="#22b573"/></linearGradient><linearGradient id="Dégradé_sans_nom_109" x1="154.99" y1="91.88" x2="154.99" y2="0.31" gradientUnits="userSpaceOnUse"><stop offset="0" stop-color="#858068"/><stop offset="0.28" stop-color="#868265"/><stop offset="0.51" stop-color="#898a5b"/><stop offset="0.7" stop-color="#8e964b"/><stop offset="0.89" stop-color="#95a833"/><stop offset="1" stop-color="#9ab522"/></linearGradient><linearGradient id="Dégradé_sans_nom_109-2" x1="260.9" y1="130.25" x2="260.9" y2="9.88" xlink:href="#Dégradé_sans_nom_109"/><linearGradient id="Dégradé_sans_nom_109-3" x1="242.39" y1="362.82" x2="242.39" y2="242.45" xlink:href="#Dégradé_sans_nom_109"/><linearGradient id="Dégradé_sans_nom_109-4" x1="522.55" y1="246.57" x2="522.55" y2="145.23" xlink:href="#Dégradé_sans_nom_109"/><linearGradient id="Dégradé_sans_nom_109-5" x1="659.55" y1="429.68" x2="659.55" y2="303.56" xlink:href="#Dégradé_sans_nom_109"/><linearGradient id="Dégradé_sans_nom_109-6" x1="348.75" y1="205.61" x2="348.75" y2="85.25" xlink:href="#Dégradé_sans_nom_109"/><linearGradient id="Dégradé_sans_nom_109-7" x1="184.36" y1="247.43" x2="184.36" y2="127.06" xlink:href="#Dégradé_sans_nom_109"/><linearGradient id="Dégradé_sans_nom_109-8" x1="73.38" y1="206.1" x2="73.38" y2="85.73" xlink:href="#Dégradé_sans_nom_109"/><linearGradient id="Dégradé_sans_nom_109-9" x1="48.85" y1="349.05" x2="48.85" y2="228.69" xlink:href="#Dégradé_sans_nom_109"/><clipPath id="clip-path-2"><rect class="cls-1" x="-1921.15" y="-1270.45" width="960" height="600"/></clipPath><linearGradient id="Dégradé_sans_nom_89" x1="-1329.46" y1="-1147.66" x2="-590.84" y2="881.66" gradientUnits="userSpaceOnUse"><stop offset="0" stop-color="#15d86f"/><stop offset="0.07" stop-color="#0ec97d"/><stop offset="0.19" stop-color="#06b78f"/><stop offset="0.31" stop-color="#02ad9a"/><stop offset="0.45" stop-color="#00a99d"/></linearGradient><clipPath id="clip-path-3"><rect class="cls-1" x="-984.15" y="-28.45" width="960" height="600"/></clipPath><linearGradient id="Dégradé_sans_nom_89-2" x1="-392.46" y1="94.34" x2="346.16" y2="2123.66" xlink:href="#Dégradé_sans_nom_89"/><clipPath id="clip-path-4"><rect class="cls-1" x="-1921.15" y="-1272.45" width="960" height="600"/></clipPath><linearGradient id="Dégradé_sans_nom_89-3" x1="-1329.46" y1="-1149.66" x2="-590.84" y2="879.66" xlink:href="#Dégradé_sans_nom_89"/><clipPath id="clip-path-5"><rect class="cls-1" x="-961.15" y="-1272.45" width="960" height="600" transform="translate(-962.3 -1944.89) rotate(-180)"/></clipPath><linearGradient id="Dégradé_sans_nom_121-2" x1="-592.84" y1="-1149.66" x2="-1331.46" y2="879.66" xlink:href="#Dégradé_sans_nom_121"/><clipPath id="clip-path-6"><rect class="cls-1" x="-801.15" y="-1193.26" width="800" height="520" transform="translate(-802.3 -1866.51) rotate(-180)"/></clipPath><linearGradient id="Dégradé_sans_nom_141" x1="-6209.15" y1="-974.43" x2="-7195.34" y2="733.71" gradientTransform="matrix(-1, 0, 0, 1, -6687.57, 0)" gradientUnits="userSpaceOnUse"><stop offset="0" stop-color="#fefe9c"/><stop offset="0" stop-color="#fcfb9b"/><stop offset="0.06" stop-color="#e1dc91"/><stop offset="0.13" stop-color="#cbc188"/><stop offset="0.21" stop-color="#b8ab81"/><stop offset="0.3" stop-color="#aa9a7c"/><stop offset="0.41" stop-color="#a08f78"/><stop offset="0.57" stop-color="#9b8876"/><stop offset="1" stop-color="#998675"/></linearGradient></defs><title>deforestation</title><g id="Biome"><g class="cls-2"><circle class="cls-3" cx="-1.15" cy="1108" r="1079.49"/></g><path class="cls-4" d="M154.69.31c11.92,0,35.52,61.05,0,91.57C120.57,63,142.76.31,154.69.31Z"/><rect class="cls-5" x="152.63" y="33.33" width="4.04" height="76.63" rx="2.02"/><path class="cls-6" d="M260.49,9.88c15.68,0,46.7,80.25,0,120.37C215.65,92.32,244.82,9.88,260.49,9.88Z"/><rect class="cls-5" x="257.8" y="53.29" width="5.31" height="100.72" rx="2.66"/><path class="cls-7" d="M242,242.45c15.68,0,46.7,80.25,0,120.37C197.14,324.89,226.31,242.45,242,242.45Z"/><rect class="cls-5" x="239.29" y="285.86" width="5.31" height="100.72" rx="2.66"/><path class="cls-8" d="M522.21,145.23c13.2,0,39.31,67.56,0,101.34C484.45,214.64,509,145.23,522.21,145.23Z"/><rect class="cls-5" x="519.94" y="181.78" width="4.47" height="84.81" rx="2.24"/><path class="cls-9" d="M659.13,303.56c16.42,0,48.92,84.08,0,126.12C612.14,389.94,642.7,303.56,659.13,303.56Z"/><rect class="cls-5" x="656.3" y="349.05" width="5.56" height="105.54" rx="2.24"/><path class="cls-10" d="M348.34,85.25c15.68,0,46.7,80.24,0,120.36C303.5,167.68,332.67,85.25,348.34,85.25Z"/><rect class="cls-5" x="345.65" y="128.66" width="5.31" height="100.72" rx="2.66"/><path class="cls-11" d="M184,127.06c15.68,0,46.7,80.25,0,120.37C139.12,209.5,168.28,127.06,184,127.06Z"/><rect class="cls-5" x="181.26" y="170.47" width="5.31" height="100.72" rx="2.66"/><path class="cls-12" d="M73,85.73c15.68,0,46.7,80.25,0,120.37C28.13,168.17,57.3,85.73,73,85.73Z"/><rect class="cls-5" x="70.28" y="129.14" width="5.31" height="100.72" rx="2.66"/><path class="cls-13" d="M48.45,228.69c15.68,0,46.69,80.24,0,120.36C3.61,311.12,32.77,228.69,48.45,228.69Z"/><rect class="cls-5" x="45.75" y="272.09" width="5.31" height="100.72" rx="2.66"/><g class="cls-14"><circle class="cls-15" cx="-960.15" cy="-133" r="1079.49"/></g><g class="cls-16"><circle class="cls-17" cx="-23.15" cy="1109" r="1079.49"/></g><g class="cls-18"><circle class="cls-19" cx="-960.15" cy="-135" r="1079.49"/></g><g class="cls-20"><circle class="cls-21" cx="-962.15" cy="-135" r="1079.49"/></g></g><g id="nuage"><g class="cls-22"><circle class="cls-23" cx="14.67" cy="-120.36" r="986.03"/></g></g></svg>