<svg xmlns="http://www.w3.org/2000/svg" xmlns:xlink="http://www.w3.org/1999/xlink" viewBox="0 0 805 459"><defs><style>.cls-1{fill:none;}.cls-2{clip-path:url(#clip-path);}.cls-3{fill:url(#Dégradé_sans_nom_107);}.cls-4{clip-path:url(#clip-path-2);}.cls-5{fill:url(#Dégradé_sans_nom_141);}.cls-6{fill:#bfd677;}.cls-7{fill:#998675;}.cls-8{fill:#877567;}</style><clipPath id="clip-path"><rect class="cls-1" x="-1376" y="-1062.62" width="800" height="520" transform="translate(-1952 -1605.23) rotate(-180)"/></clipPath><linearGradient id="Dégradé_sans_nom_107" x1="-2574.3" y1="-843.79" x2="-3560.49" y2="864.35" gradientTransform="matrix(-1, 0, 0, 1, -3627.57, 0)" gradientUnits="userSpaceOnUse"><stop offset="0" stop-color="#c7b299"/><stop offset="0.05" stop-color="#b1b794"/><stop offset="0.15" stop-color="#88bf8a"/><stop offset="0.26" stop-color="#64c782"/><stop offset="0.38" stop-color="#47cd7b"/><stop offset="0.5" stop-color="#31d276"/><stop offset="0.64" stop-color="#21d572"/><stop offset="0.79" stop-color="#18d770"/><stop offset="1" stop-color="#15d86f"/></linearGradient><clipPath id="clip-path-2"><rect class="cls-1" x="4.85" y="-61.26" width="800" height="520" transform="translate(809.7 397.49) rotate(-180)"/></clipPath><linearGradient id="Dégradé_sans_nom_141" x1="-3955.15" y1="157.57" x2="-4941.34" y2="1865.71" gradientTransform="matrix(-1, 0, 0, 1, -3627.57, 0)" gradientUnits="userSpaceOnUse"><stop offset="0" stop-color="#fefe9c"/><stop offset="0" stop-color="#fcfb9b"/><stop offset="0.06" stop-color="#e1dc91"/><stop offset="0.13" stop-color="#cbc188"/><stop offset="0.21" stop-color="#b8ab81"/><stop offset="0.3" stop-color="#aa9a7c"/><stop offset="0.41" stop-color="#a08f78"/><stop offset="0.57" stop-color="#9b8876"/><stop offset="1" stop-color="#998675"/></linearGradient></defs><title>erosion</title><g id="Biome"><g class="cls-2"><circle class="cls-3" cx="-560.18" cy="10.28" r="986.03"/></g></g><g id="desert"><g class="cls-4"><circle class="cls-5" cx="820.67" cy="1011.64" r="986.03"/></g><path class="cls-6" d="M589.42,360h24.17c-.22-4.45,1.1-9.38,5.62-15.32-4.83,2.1-11.41,9-12.94,8.68s-2.85-10.84-6.81-14.13c-.22,5.23-5.1,13.62-6.29,13.45s-6.56-8.08-11.41-8.85C586.33,348.68,589,354.05,589.42,360Z"/><path class="cls-6" d="M610.93,171h17c-.15-3.12.77-6.58,3.94-10.74-3.39,1.47-8,6.32-9.07,6.08s-2-7.6-4.78-9.9c-.16,3.66-3.58,9.55-4.41,9.43s-4.6-5.67-8-6.21A18.43,18.43,0,0,1,610.93,171Z"/><path class="cls-6" d="M633.85,90h12.73c-.12-2.34.57-4.94,2.95-8.06-2.54,1.1-6,4.75-6.81,4.57s-1.5-5.71-3.58-7.44c-.12,2.75-2.69,7.17-3.32,7.08s-3.45-4.25-6-4.66A13.78,13.78,0,0,1,633.85,90Z"/><path class="cls-6" d="M714.65,288.81h15.42c-.14-2.84.7-6,3.58-9.78-3.08,1.34-7.27,5.76-8.25,5.54s-1.82-6.91-4.34-9c-.15,3.33-3.26,8.68-4,8.58s-4.19-5.16-7.28-5.65A16.7,16.7,0,0,1,714.65,288.81Z"/><path class="cls-6" d="M400.17,297h24.17c-.22-4.45,1.1-9.38,5.61-15.32-4.83,2.1-11.4,9-12.93,8.68s-2.85-10.84-6.81-14.13c-.23,5.23-5.11,13.62-6.3,13.45s-6.56-8.08-11.4-8.85C397.08,285.68,399.71,291.05,400.17,297Z"/><path class="cls-6" d="M405.07,180h13.45c-.12-2.48.61-5.22,3.13-8.53-2.69,1.17-6.35,5-7.2,4.83s-1.59-6-3.79-7.86c-.13,2.91-2.85,7.58-3.51,7.49s-3.65-4.5-6.35-4.93A14.62,14.62,0,0,1,405.07,180Z"/><path class="cls-6" d="M492.07,177h13.45c-.12-2.48.61-5.22,3.13-8.53-2.69,1.17-6.35,5-7.2,4.83s-1.59-6-3.79-7.86c-.13,2.91-2.85,7.58-3.51,7.49s-3.65-4.5-6.35-4.93A14.62,14.62,0,0,1,492.07,177Z"/><rect class="cls-7" x="679.91" y="180.24" width="4.08" height="77.34" rx="2.04"/><path class="cls-8" d="M697.23,226.53l.57-.05a1.67,1.67,0,0,1,1.81,1.82c-.83,7.82-6.12,13.24-16.88,15.72a1.66,1.66,0,0,1-1.57-.44h0a1.69,1.69,0,0,1,.7-2.78c8-3.14,12.1-3.15,14.31-12.89C696.34,227.15,696.46,226.59,697.23,226.53Z"/><path class="cls-8" d="M695.94,188.38l.57,0a1.65,1.65,0,0,1,1.81,1.81c-1.07,7.7-5.92,17.67-16.44,21.5a1.53,1.53,0,0,1-1.57-.44h0a1.73,1.73,0,0,1,.69-2.79c7.87-3.77,11.67-8.91,13.88-18.66C695.05,189,695.17,188.45,695.94,188.38Z"/><path class="cls-8" d="M662.11,211.35l-.57,0a1.65,1.65,0,0,0-1.8,1.81c1.06,7.7,15.89,18.65,22.22,18.25a1.55,1.55,0,0,0,1.57-.45h0a1.72,1.72,0,0,0-.7-2.78c-8.35-2.17-16.51-8.09-19.65-15.41C663,212,662.88,211.42,662.11,211.35Z"/><rect class="cls-7" x="720.96" y="0.49" width="3.37" height="63.83" rx="1.68"/><path class="cls-8" d="M735.26,38.7l.47,0a1.38,1.38,0,0,1,1.49,1.5c-.68,6.45-5.05,10.93-13.93,13a1.38,1.38,0,0,1-1.29-.37h0a1.4,1.4,0,0,1,.57-2.3c6.59-2.58,10-2.59,11.81-10.64C734.52,39.21,734.62,38.75,735.26,38.7Z"/><path class="cls-8" d="M734.19,7.22l.47,0a1.36,1.36,0,0,1,1.49,1.5c-.87,6.35-4.88,14.58-13.56,17.74a1.29,1.29,0,0,1-1.3-.37h0a1.42,1.42,0,0,1,.57-2.29c6.49-3.12,9.63-7.36,11.45-15.41C733.46,7.73,733.56,7.27,734.19,7.22Z"/><path class="cls-8" d="M706.27,26.17l-.47,0a1.36,1.36,0,0,0-1.48,1.5c.87,6.34,13.11,15.39,18.33,15a1.27,1.27,0,0,0,1.3-.37h0a1.42,1.42,0,0,0-.58-2.29c-6.89-1.79-13.63-6.68-16.22-12.72C707,26.69,706.91,26.23,706.27,26.17Z"/><rect class="cls-7" x="383.13" y="133.05" width="4.65" height="88.2" rx="2.32"/><path class="cls-8" d="M402.88,185.84l.65-.06a1.91,1.91,0,0,1,2.06,2.08c-.94,8.92-7,15.1-19.24,17.93a1.9,1.9,0,0,1-1.79-.51h0a1.93,1.93,0,0,1,.78-3.17c9.12-3.57,13.81-3.59,16.32-14.7C401.86,186.55,402,185.91,402.88,185.84Z"/><path class="cls-8" d="M401.41,142.34l.65-.06a1.89,1.89,0,0,1,2.06,2.08c-1.21,8.77-6.75,20.14-18.75,24.51a1.77,1.77,0,0,1-1.79-.5h0a2,2,0,0,1,.79-3.18c9-4.31,13.3-10.17,15.82-21.28C400.39,143.05,400.53,142.41,401.41,142.34Z"/><path class="cls-8" d="M362.83,168.53l-.65-.05a1.89,1.89,0,0,0-2.06,2.07c1.21,8.78,18.12,21.27,25.34,20.81a1.75,1.75,0,0,0,1.79-.51h0a2,2,0,0,0-.79-3.17c-9.53-2.48-18.84-9.23-22.42-17.57C363.85,169.25,363.71,168.61,362.83,168.53Z"/><rect class="cls-7" x="564.76" y="51.05" width="3.57" height="67.66" rx="1.78"/><path class="cls-8" d="M579.92,91.54l.49,0A1.45,1.45,0,0,1,582,93.09c-.72,6.84-5.35,11.58-14.76,13.76a1.48,1.48,0,0,1-1.37-.39h0a1.49,1.49,0,0,1,.61-2.44c7-2.74,10.58-2.75,12.51-11.27C579.13,92.09,579.24,91.6,579.92,91.54Z"/><path class="cls-8" d="M578.79,58.17l.5,0a1.44,1.44,0,0,1,1.57,1.59c-.92,6.73-5.17,15.46-14.37,18.81a1.36,1.36,0,0,1-1.38-.39h0a1.51,1.51,0,0,1,.61-2.44c6.88-3.3,10.2-7.8,12.14-16.32C578,58.72,578.11,58.23,578.79,58.17Z"/><path class="cls-8" d="M549.19,78.27l-.49,0a1.44,1.44,0,0,0-1.58,1.59c.93,6.73,13.9,16.31,19.43,16a1.36,1.36,0,0,0,1.37-.39h0a1.51,1.51,0,0,0-.6-2.44c-7.31-1.9-14.45-7.08-17.19-13.48C550,78.81,549.87,78.32,549.19,78.27Z"/><rect class="cls-7" x="268.28" y="243.61" width="5.59" height="106.12" rx="2.32"/><path class="cls-8" d="M292.05,307.12l.78-.06a2.28,2.28,0,0,1,2.47,2.49c-1.12,10.73-8.39,18.17-23.15,21.58a2.31,2.31,0,0,1-2.15-.61h0a2.33,2.33,0,0,1,.95-3.82c11-4.3,16.6-4.32,19.63-17.68C290.82,308,291,307.21,292.05,307.12Z"/><path class="cls-8" d="M290.28,254.78l.78-.06a2.26,2.26,0,0,1,2.47,2.49c-1.45,10.56-8.11,24.25-22.55,29.5a2.1,2.1,0,0,1-2.15-.61h0c-1.23-1.22-.61-3.07.95-3.82,10.79-5.18,16-12.23,19-25.6C289.05,255.64,289.22,254.87,290.28,254.78Z"/><path class="cls-8" d="M243.86,286.3l-.78-.06a2.27,2.27,0,0,0-2.48,2.49c1.46,10.56,21.8,25.59,30.48,25a2.13,2.13,0,0,0,2.16-.61h0c1.22-1.23.61-3.07-.95-3.82-11.46-3-22.66-11.11-27-21.14C245.08,287.16,244.92,286.39,243.86,286.3Z"/><rect class="cls-7" x="496.01" y="203.67" width="4.65" height="88.2" rx="2.32"/><path class="cls-8" d="M515.76,256.46l.65,0a1.9,1.9,0,0,1,2.06,2.07c-.94,8.92-7,15.1-19.24,17.94a2,2,0,0,1-1.79-.51h0a1.94,1.94,0,0,1,.79-3.18c9.11-3.57,13.8-3.59,16.32-14.7C514.74,257.17,514.88,256.53,515.76,256.46Z"/><path class="cls-8" d="M514.29,213l.65-.05A1.89,1.89,0,0,1,517,215c-1.21,8.77-6.75,20.15-18.75,24.52a1.77,1.77,0,0,1-1.79-.51h0a2,2,0,0,1,.79-3.18c9-4.3,13.3-10.17,15.82-21.28C513.27,213.67,513.41,213,514.29,213Z"/><path class="cls-8" d="M475.71,239.16l-.65-.06a1.89,1.89,0,0,0-2.06,2.08c1.21,8.77,18.12,21.27,25.34,20.8a1.75,1.75,0,0,0,1.79-.51h0a2,2,0,0,0-.79-3.17c-9.53-2.47-18.84-9.23-22.42-17.57C476.73,239.87,476.59,239.23,475.71,239.16Z"/></g></svg>