<svg xmlns="http://www.w3.org/2000/svg" xmlns:xlink="http://www.w3.org/1999/xlink" viewBox="0 0 1920 354.87"><defs><style>.cls-1,.cls-31,.cls-32{fill:none;}.cls-2{clip-path:url(#clip-path);}.cls-3{fill:url(#Dégradé_sans_nom_24);}.cls-4{clip-path:url(#clip-path-2);}.cls-5{fill:url(#Dégradé_sans_nom_120);}.cls-6{clip-path:url(#clip-path-3);}.cls-7{fill:url(#Dégradé_sans_nom_32);}.cls-8{fill:#bfd677;}.cls-9{clip-path:url(#clip-path-4);}.cls-10{fill:url(#Dégradé_sans_nom_138);}.cls-11{fill:url(#Dégradé_sans_nom_284);}.cls-12{fill:#009c90;}.cls-13{fill:url(#Dégradé_sans_nom_284-2);}.cls-14{fill:url(#Dégradé_sans_nom_284-3);}.cls-15{fill:url(#Dégradé_sans_nom_284-4);}.cls-16{fill:#80ef62;}.cls-17{fill:url(#Dégradé_sans_nom_284-5);}.cls-18{fill:#e6feb2;}.cls-19{fill:url(#Dégradé_sans_nom_284-6);}.cls-20{fill:url(#Dégradé_sans_nom_284-7);}.cls-21{clip-path:url(#clip-path-5);}.cls-22{fill:url(#Dégradé_sans_nom_89);}.cls-23{fill:url(#Dégradé_sans_nom_284-8);}.cls-24{fill:url(#Dégradé_sans_nom_284-9);}.cls-25{fill:url(#Dégradé_sans_nom_284-10);}.cls-26{fill:url(#Dégradé_sans_nom_284-11);}.cls-27{fill:url(#Dégradé_sans_nom_284-12);}.cls-28{fill:url(#Dégradé_sans_nom_284-13);}.cls-29{fill:url(#Dégradé_sans_nom_284-14);}.cls-30{fill:#998675;}.cls-31,.cls-32{stroke:#877567;stroke-linecap:round;stroke-miterlimit:10;}.cls-31{stroke-width:1.8px;}.cls-32{stroke-width:1.3px;}.cls-33{fill:#e6e6e6;}.cls-34{fill:#f2f2f2;}.cls-35{fill:#b3b3b3;}.cls-36{fill:#999;}.cls-37{fill:#ccc;}.cls-38{fill:#898989;}.cls-39{fill:gray;}</style><clipPath id="clip-path"><rect class="cls-1" x="1626.06" y="259.99" width="293.94" height="94.88" transform="translate(3546.06 614.85) rotate(-180)"/></clipPath><linearGradient id="Dégradé_sans_nom_24" x1="-5812.63" y1="286.41" x2="-6020.53" y2="646.49" gradientTransform="matrix(-1, 0, 0, 1, -4079.83, 0)" gradientUnits="userSpaceOnUse"><stop offset="0" stop-color="#01e0ff"/><stop offset="0.05" stop-color="#01c8f1"/><stop offset="0.12" stop-color="#01ade0"/><stop offset="0.2" stop-color="#0097d3"/><stop offset="0.3" stop-color="#0086c9"/><stop offset="0.41" stop-color="#007ac1"/><stop offset="0.57" stop-color="#0073bd"/><stop offset="1" stop-color="#0071bc"/></linearGradient><clipPath id="clip-path-2"><rect class="cls-1" y="198.4" width="310.86" height="156.24" transform="translate(310.86 553.03) rotate(-180)"/></clipPath><linearGradient id="Dégradé_sans_nom_120" x1="37.96" y1="236.16" x2="-251.75" y2="1032.12" gradientUnits="userSpaceOnUse"><stop offset="0" stop-color="#e6e68d"/><stop offset="0.09" stop-color="#dad292"/><stop offset="0.2" stop-color="#d0c096"/><stop offset="0.32" stop-color="#c9b698"/><stop offset="0.45" stop-color="#c7b299"/></linearGradient><clipPath id="clip-path-3"><rect class="cls-1" x="1300.28" y="292.36" width="284.98" height="62.51" transform="translate(2885.53 647.22) rotate(-180)"/></clipPath><linearGradient id="Dégradé_sans_nom_32" x1="-5454.19" y1="305.88" x2="-5587.5" y2="536.78" gradientTransform="matrix(-1, 0, 0, 1, -4079.83, 0)" gradientUnits="userSpaceOnUse"><stop offset="0" stop-color="#c7b299"/><stop offset="0.12" stop-color="#b2a392"/><stop offset="0.3" stop-color="#9c948a"/><stop offset="0.49" stop-color="#8c8984"/><stop offset="0.7" stop-color="#838281"/><stop offset="1" stop-color="gray"/></linearGradient><clipPath id="clip-path-4"><rect class="cls-1" x="68.24" y="263.74" width="356.97" height="91.51"/></clipPath><linearGradient id="Dégradé_sans_nom_138" x1="342.23" y1="294.63" x2="155.56" y2="617.95" gradientUnits="userSpaceOnUse"><stop offset="0" stop-color="#80ef62"/><stop offset="0.04" stop-color="#62e966"/><stop offset="0.11" stop-color="#2bdd6c"/><stop offset="0.14" stop-color="#15d86f"/></linearGradient><linearGradient id="Dégradé_sans_nom_284" x1="185.35" y1="287.32" x2="185.35" y2="261.33" gradientUnits="userSpaceOnUse"><stop offset="0" stop-color="#22b573"/><stop offset="0.17" stop-color="#28b972"/><stop offset="0.41" stop-color="#3ac46f"/><stop offset="0.69" stop-color="#57d569"/><stop offset="0.99" stop-color="#7eee62"/><stop offset="1" stop-color="#80ef62"/></linearGradient><linearGradient id="Dégradé_sans_nom_284-2" x1="226.71" y1="300.65" x2="226.71" y2="263.49" xlink:href="#Dégradé_sans_nom_284"/><linearGradient id="Dégradé_sans_nom_284-3" x1="162.93" y1="327.73" x2="162.93" y2="290.57" xlink:href="#Dégradé_sans_nom_284"/><linearGradient id="Dégradé_sans_nom_284-4" x1="331.68" y1="306.33" x2="331.68" y2="271.72" xlink:href="#Dégradé_sans_nom_284"/><linearGradient id="Dégradé_sans_nom_284-5" x1="280.69" y1="324.13" x2="280.69" y2="282.84" xlink:href="#Dégradé_sans_nom_284"/><linearGradient id="Dégradé_sans_nom_284-6" x1="446.41" y1="331.83" x2="446.41" y2="299.94" xlink:href="#Dégradé_sans_nom_284"/><linearGradient id="Dégradé_sans_nom_284-7" x1="496.78" y1="314.31" x2="496.78" y2="269.05" xlink:href="#Dégradé_sans_nom_284"/><clipPath id="clip-path-5"><rect class="cls-1" x="382.22" y="300.6" width="237.5" height="55.17"/></clipPath><linearGradient id="Dégradé_sans_nom_89" x1="465.3" y1="307.62" x2="536.32" y2="502.74" gradientUnits="userSpaceOnUse"><stop offset="0" stop-color="#15d86f"/><stop offset="0.07" stop-color="#0ec97d"/><stop offset="0.19" stop-color="#06b78f"/><stop offset="0.31" stop-color="#02ad9a"/><stop offset="0.45" stop-color="#00a99d"/></linearGradient><linearGradient id="Dégradé_sans_nom_284-8" x1="484.8" y1="373.7" x2="484.8" y2="328.18" xlink:href="#Dégradé_sans_nom_284"/><linearGradient id="Dégradé_sans_nom_284-9" x1="565.96" y1="365.85" x2="565.96" y2="328.69" xlink:href="#Dégradé_sans_nom_284"/><linearGradient id="Dégradé_sans_nom_284-10" x1="515.05" y1="339.27" x2="515.05" y2="294.01" xlink:href="#Dégradé_sans_nom_284"/><linearGradient id="Dégradé_sans_nom_284-11" x1="546.48" y1="321.11" x2="546.48" y2="286.5" xlink:href="#Dégradé_sans_nom_284"/><linearGradient id="Dégradé_sans_nom_284-12" x1="579.11" y1="325.21" x2="579.11" y2="297.22" xlink:href="#Dégradé_sans_nom_284"/><linearGradient id="Dégradé_sans_nom_284-13" x1="466.48" y1="325.48" x2="466.48" y2="280.22" xlink:href="#Dégradé_sans_nom_284"/><linearGradient id="Dégradé_sans_nom_284-14" x1="430.02" y1="334.37" x2="430.02" y2="296.15" xlink:href="#Dégradé_sans_nom_284"/></defs><title>Plan de travail 19</title><g id="Biome"><g class="cls-2"><ellipse class="cls-3" cx="1836.75" cy="466.45" rx="254.65" ry="189.75"/></g></g><g id="footer"><g class="cls-4"><ellipse class="cls-5" cx="-106.9" cy="634.14" rx="469.27" ry="416.96"/></g><g class="cls-6"><ellipse class="cls-7" cx="1441.02" cy="421.33" rx="170.11" ry="118.53"/></g><path class="cls-8" d="M8.23,305.39h6.44a6.1,6.1,0,0,1,1.49-4.08c-1.28.56-3,2.4-3.44,2.31s-.76-2.88-1.81-3.76c-.06,1.39-1.36,3.63-1.68,3.58s-1.75-2.15-3-2.35A7,7,0,0,1,8.23,305.39Z"/><path class="cls-8" d="M41.37,281.74h6.44a6.1,6.1,0,0,1,1.49-4.08c-1.28.56-3,2.4-3.44,2.31s-.76-2.88-1.81-3.76c-.06,1.39-1.36,3.63-1.68,3.58s-1.75-2.15-3-2.35A7,7,0,0,1,41.37,281.74Z"/><path class="cls-8" d="M82.94,319.44h7.47a7.07,7.07,0,0,1,1.74-4.73c-1.49.65-3.53,2.78-4,2.68s-.88-3.35-2.1-4.37c-.07,1.62-1.58,4.21-2,4.16s-2-2.5-3.52-2.74A8.11,8.11,0,0,1,82.94,319.44Z"/><path class="cls-8" d="M60,250h5.39a5.12,5.12,0,0,1,1.25-3.42c-1.07.47-2.54,2-2.88,1.94s-.64-2.42-1.52-3.15c-.05,1.16-1.14,3-1.4,3s-1.46-1.81-2.55-2A5.84,5.84,0,0,1,60,250Z"/><g class="cls-9"><ellipse class="cls-10" cx="248.9" cy="456.29" rx="213.1" ry="176.96"/></g><path class="cls-11" d="M185.27,261.33c3.38,0,10.08,17.33,0,26C175.58,279.13,181.88,261.33,185.27,261.33Z"/><rect class="cls-12" x="184.68" y="270.7" width="1.15" height="21.75" rx="0.57"/><path class="cls-13" d="M226.58,263.49c4.84,0,14.42,24.77,0,37.16C212.74,288.94,221.74,263.49,226.58,263.49Z"/><rect class="cls-12" x="225.75" y="276.89" width="1.64" height="31.1" rx="0.82"/><path class="cls-14" d="M162.81,290.57c4.84,0,14.41,24.78,0,37.16C149,316,158,290.57,162.81,290.57Z"/><rect class="cls-12" x="161.97" y="303.98" width="1.64" height="31.1" rx="0.82"/><path class="cls-15" d="M331.56,271.72c4.51,0,13.43,23.07,0,34.61C318.67,295.42,327.05,271.72,331.56,271.72Z"/><rect class="cls-12" x="330.79" y="284.2" width="1.53" height="28.96" rx="0.76"/><path class="cls-16" d="M193.08,305.94h7.81a7.4,7.4,0,0,1,1.82-4.95c-1.56.68-3.69,2.92-4.19,2.81s-.92-3.51-2.2-4.57c-.07,1.69-1.65,4.4-2,4.35s-2.12-2.62-3.69-2.87A8.51,8.51,0,0,1,193.08,305.94Z"/><path class="cls-16" d="M251.16,290.11H259a7.39,7.39,0,0,1,1.81-4.95c-1.56.68-3.69,2.92-4.18,2.81s-.92-3.51-2.2-4.57c-.07,1.69-1.65,4.4-2,4.35s-2.12-2.62-3.69-2.87A8.51,8.51,0,0,1,251.16,290.11Z"/><path class="cls-16" d="M226.39,328h7.82a7.43,7.43,0,0,1,1.82-5c-1.56.68-3.69,2.92-4.19,2.81s-.92-3.5-2.2-4.57c-.07,1.69-1.65,4.41-2,4.35s-2.13-2.61-3.69-2.86A8.42,8.42,0,0,1,226.39,328Z"/><path class="cls-16" d="M201.12,341.56h7.81a7.4,7.4,0,0,1,1.82-4.95c-1.56.68-3.69,2.91-4.18,2.8s-.92-3.5-2.2-4.57c-.08,1.69-1.66,4.41-2,4.35s-2.12-2.61-3.69-2.86A8.51,8.51,0,0,1,201.12,341.56Z"/><path class="cls-16" d="M286.53,346.58h-7.82a7.41,7.41,0,0,0-1.81-5c1.56.68,3.68,2.92,4.18,2.81s.92-3.5,2.2-4.57c.07,1.69,1.65,4.41,2,4.35s2.12-2.61,3.69-2.86A8.48,8.48,0,0,0,286.53,346.58Z"/><path class="cls-16" d="M275.93,314.28h-7.81a7.39,7.39,0,0,0-1.82-4.95c1.56.67,3.69,2.91,4.18,2.8s.93-3.5,2.21-4.57c.07,1.69,1.65,4.41,2,4.35s2.12-2.61,3.69-2.86A8.51,8.51,0,0,0,275.93,314.28Z"/><path class="cls-16" d="M304,298.45H296.2a7.37,7.37,0,0,0-1.81-4.95c1.56.68,3.68,2.91,4.18,2.8s.92-3.5,2.2-4.57c.07,1.69,1.65,4.41,2,4.35s2.12-2.61,3.68-2.86A8.55,8.55,0,0,0,304,298.45Z"/><path class="cls-16" d="M320.87,324.67h-7.82a7.39,7.39,0,0,0-1.81-4.95c1.56.68,3.68,2.91,4.18,2.8s.92-3.5,2.2-4.56c.07,1.68,1.65,4.4,2,4.34s2.12-2.61,3.69-2.86A8.51,8.51,0,0,0,320.87,324.67Z"/><path class="cls-17" d="M280.55,282.84c5.38,0,16,27.53,0,41.29C265.17,311.12,275.17,282.84,280.55,282.84Z"/><rect class="cls-12" x="279.62" y="297.73" width="1.82" height="34.55" rx="0.84"/><ellipse class="cls-18" cx="29.59" cy="252.82" rx="0.94" ry="0.55"/><ellipse class="cls-18" cx="6.19" cy="259.99" rx="0.94" ry="0.55"/><ellipse class="cls-18" cx="20.92" cy="284.91" rx="0.94" ry="0.55"/><ellipse class="cls-18" cx="39.98" cy="271.38" rx="0.94" ry="0.55"/><ellipse class="cls-18" cx="18.11" cy="242.74" rx="0.94" ry="0.55"/><ellipse class="cls-18" cx="59.21" cy="333.08" rx="0.94" ry="0.55"/><ellipse class="cls-18" cx="63.44" cy="255.63" rx="0.94" ry="0.55"/><ellipse class="cls-18" cx="28.38" cy="312.27" rx="0.94" ry="0.55"/><ellipse class="cls-18" cx="103.3" cy="295.86" rx="0.94" ry="0.55"/><ellipse class="cls-18" cx="138.45" cy="290.11" rx="0.94" ry="0.55"/><ellipse class="cls-18" cx="112.06" cy="274.33" rx="0.94" ry="0.55"/><ellipse class="cls-18" cx="72.46" cy="275.06" rx="0.94" ry="0.55"/><ellipse class="cls-18" cx="35.21" cy="347.68" rx="0.94" ry="0.55"/><ellipse class="cls-18" cx="64.01" cy="288.72" rx="0.94" ry="0.55"/><ellipse class="cls-18" cx="68.24" cy="305.94" rx="0.94" ry="0.55"/><ellipse class="cls-18" cx="12.74" cy="324.67" rx="0.94" ry="0.55"/><path class="cls-19" d="M446.3,299.94c4.16,0,12.37,21.26,0,31.89C434.42,321.78,442.15,299.94,446.3,299.94Z"/><rect class="cls-12" x="445.59" y="311.44" width="1.41" height="26.69" rx="0.7"/><path class="cls-20" d="M496.63,269.05c5.9,0,17.56,30.17,0,45.26C479.77,300,490.74,269.05,496.63,269.05Z"/><rect class="cls-12" x="495.62" y="285.37" width="2" height="37.87" rx="1"/><g class="cls-21"><ellipse class="cls-22" cx="500.81" cy="405.18" rx="133.21" ry="99.26"/></g><path class="cls-23" d="M484.65,328.18c5.93,0,17.66,30.35,0,45.52C467.69,359.36,478.72,328.18,484.65,328.18Z"/><rect class="cls-12" x="483.63" y="344.6" width="2.01" height="38.1" rx="0.84"/><path class="cls-24" d="M565.83,328.69c4.84,0,14.42,24.78,0,37.16C552,354.14,561,328.69,565.83,328.69Z"/><rect class="cls-12" x="565" y="342.09" width="1.64" height="31.1" rx="0.82"/><path class="cls-25" d="M514.9,294c5.89,0,17.56,30.17,0,45.26C498,325,509,294,514.9,294Z"/><rect class="cls-12" x="513.88" y="310.33" width="2" height="37.87" rx="1"/><path class="cls-26" d="M546.36,286.5c4.51,0,13.43,23.07,0,34.61C533.47,310.2,541.85,286.5,546.36,286.5Z"/><rect class="cls-12" x="545.59" y="298.98" width="1.53" height="28.96" rx="0.76"/><path class="cls-27" d="M579,297.22c3.65,0,10.86,18.66,0,28C568.59,316.39,575.37,297.22,579,297.22Z"/><rect class="cls-12" x="578.39" y="307.32" width="1.24" height="23.43" rx="0.62"/><path class="cls-28" d="M466.33,280.22c5.89,0,17.56,30.17,0,45.26C449.47,311.21,460.43,280.22,466.33,280.22Z"/><rect class="cls-12" x="465.32" y="296.54" width="2" height="37.87" rx="1"/><path class="cls-29" d="M429.89,296.15c5,0,14.83,25.48,0,38.22C415.65,322.32,424.91,296.15,429.89,296.15Z"/><rect class="cls-12" x="429.03" y="309.93" width="1.69" height="31.98" rx="0.84"/><rect class="cls-30" x="75.84" y="254.13" width="1.88" height="35.59" rx="0.94"/><path class="cls-31" d="M83.52,258.69c-.59,4.52-3.16,7.25-6.72,9.11"/><path class="cls-31" d="M84.37,275.45c-.17,4.57-3.61,5.89-7.59,7.05"/><path class="cls-31" d="M76.78,276.88q-5.06-1-9.1-7.61"/><rect class="cls-30" x="44.32" y="293.92" width="1.88" height="35.59" rx="0.94"/><path class="cls-31" d="M52,298.49c-.59,4.51-3.17,7.25-6.73,9.1"/><path class="cls-31" d="M52.84,315.25c-.17,4.56-3.61,5.89-7.58,7"/><path class="cls-31" d="M45.26,316.68c-3.38-.67-6.42-3.2-9.11-7.62"/><rect class="cls-30" x="28.15" y="219.65" width="1.44" height="27.4" rx="0.72"/><path class="cls-32" d="M34.06,223.16a8.87,8.87,0,0,1-5.18,7"/><path class="cls-32" d="M34.71,236.06c-.13,3.52-2.78,4.54-5.84,5.43"/><path class="cls-32" d="M28.87,237.17q-3.9-.76-7-5.87"/><polygon class="cls-33" points="1799.21 309.59 1825.77 298.69 1838.02 309.59 1854.36 306.52 1866.62 300.06 1881.26 309.25 1870.7 335.46 1840.23 333.08 1833.6 325.62 1811.47 332.5 1804.32 339.55 1773.34 339.55 1769.6 315.04 1799.21 309.59"/><polygon class="cls-34" points="1799.21 301.08 1825.77 290.18 1838.02 301.08 1854.36 298.01 1866.62 291.55 1881.26 309.25 1870.7 326.95 1840.23 324.57 1833.6 317.11 1811.47 323.99 1804.32 331.04 1773.34 331.04 1769.6 315.04 1799.21 301.08"/><path class="cls-33" d="M1679.72,349.42c0-1.36,31-5.45,31-5.45v-7.83c-11.59.1-22.89.58-31,5.45Z"/><polygon class="cls-33" points="1687.21 323.55 1687.21 339.89 1695.21 333.59 1687.21 323.55"/><path class="cls-34" d="M1679.72,341.59c0-1.36,31-5.45,31-5.45l-11.91-14.3-11.58,1.77.94,6.74Z"/></g><g id="nuage"><polygon class="cls-35" points="1549.38 339.89 1549.38 316.6 1537.73 323.56 1537.73 339.89 1549.38 339.89"/><polygon class="cls-36" points="1537.73 339.89 1537.73 316.6 1526.08 323.56 1526.08 339.89 1537.73 339.89"/><polygon class="cls-35" points="1526.08 339.89 1526.08 316.6 1514.44 323.56 1514.44 339.89 1526.08 339.89"/><polygon class="cls-37" points="1510.54 302.49 1510.54 339.89 1505.13 339.89 1508.56 302.49 1510.54 302.49"/><polygon class="cls-35" points="1510.54 302.49 1510.54 339.89 1515.94 339.89 1512.52 302.49 1510.54 302.49"/><polygon class="cls-35" points="1486.34 314.05 1486.34 297.47 1478.05 302.43 1478.05 314.05 1486.34 314.05"/><polygon class="cls-36" points="1478.05 314.05 1478.05 297.47 1469.76 302.43 1469.76 314.05 1478.05 314.05"/><polygon class="cls-35" points="1469.76 314.05 1469.76 297.47 1461.47 302.43 1461.47 314.05 1469.76 314.05"/><polygon class="cls-37" points="1458.69 287.43 1458.69 314.05 1454.85 314.05 1457.29 287.43 1458.69 287.43"/><polygon class="cls-35" points="1458.69 287.43 1458.69 314.05 1462.54 314.05 1460.11 287.43 1458.69 287.43"/><path class="cls-38" d="M1453.57,283.53h25.79a4.4,4.4,0,0,0,.13-1c0-.1,0-.19,0-.29s0-.18,0-.28a4.13,4.13,0,0,0-4.13-4.13,4.32,4.32,0,0,0-1.08.14,6.13,6.13,0,0,0-10.94-2.23,3.83,3.83,0,0,0-.83-.08,4.13,4.13,0,0,0-3.77,2.42,4.32,4.32,0,0,0-1.15-.16,4.13,4.13,0,0,0-4.13,4.13,2.62,2.62,0,0,0,0,.28,2.81,2.81,0,0,0,0,.29A4.24,4.24,0,0,0,1453.57,283.53Z"/><path class="cls-36" d="M1460.13,283.53h25.79a4.4,4.4,0,0,0,.12-1,2.81,2.81,0,0,0,0-.29,2.53,2.53,0,0,0,0-.28,4.12,4.12,0,0,0-4.12-4.13,4.2,4.2,0,0,0-1.08.14,6.13,6.13,0,0,0-10.94-2.23,3.83,3.83,0,0,0-.83-.08,4.13,4.13,0,0,0-3.77,2.42,4.32,4.32,0,0,0-1.15-.16A4.13,4.13,0,0,0,1460,282a2.62,2.62,0,0,0,0,.28,2.81,2.81,0,0,0,0,.29A4.24,4.24,0,0,0,1460.13,283.53Z"/><path class="cls-39" d="M1505,298.58h28.11a4.66,4.66,0,0,0,.14-1.13c0-.1,0-.2,0-.3s0-.21,0-.31a81.68,81.68,0,0,0-9.43-6.83,4.5,4.5,0,0,0-8.16.05,4.61,4.61,0,0,0-.91-.1,4.52,4.52,0,0,0-4.11,2.65,4.73,4.73,0,0,0-1.26-.18,4.51,4.51,0,0,0-4.5,4.5,3,3,0,0,0,0,.31c0,.11,0,.21,0,.31A5,5,0,0,0,1505,298.58Z"/><path class="cls-36" d="M1512.1,298.58h28.11a4.66,4.66,0,0,0,.14-1.13c0-.1,0-.2,0-.3s0-.21,0-.31a81.68,81.68,0,0,0-9.43-6.83,4.5,4.5,0,0,0-8.16.05,4.63,4.63,0,0,0-.92-.1,4.51,4.51,0,0,0-4.1,2.65,4.73,4.73,0,0,0-1.26-.18,4.51,4.51,0,0,0-4.5,4.5c0,.11,0,.21,0,.31s0,.21,0,.31A4.4,4.4,0,0,0,1512.1,298.58Z"/><path class="cls-35" d="M1392.4,302.63v32.19h-15.84c6.19-10.92,9-21.64,6-32.19Z"/><path class="cls-37" d="M1392.4,302.63v32.19h15.85c-6.2-10.92-9-21.64-6-32.19Z"/><rect class="cls-36" x="1381.3" y="300.51" width="22.2" height="2.12" rx="0.99"/><path class="cls-37" d="M1386.19,298.58h28.11a4.66,4.66,0,0,0,.14-1.13c0-.1,0-.2,0-.3s0-.21,0-.31A81.68,81.68,0,0,0,1405,290a4.51,4.51,0,0,0-8.17.05,4.45,4.45,0,0,0-.91-.1,4.51,4.51,0,0,0-4.1,2.65,4.73,4.73,0,0,0-1.26-.18,4.51,4.51,0,0,0-4.5,4.5c0,.11,0,.21,0,.31s0,.21,0,.31A4.4,4.4,0,0,0,1386.19,298.58Z"/><path class="cls-35" d="M1393.34,298.58h28.11a4.66,4.66,0,0,0,.14-1.13c0-.1,0-.2,0-.3s0-.21,0-.31a80.36,80.36,0,0,0-9.44-6.83,4.5,4.5,0,0,0-8.16.05,4.45,4.45,0,0,0-5,2.55,4.73,4.73,0,0,0-1.26-.18,4.5,4.5,0,0,0-4.5,4.5c0,.11,0,.21,0,.31s0,.21,0,.31A4.4,4.4,0,0,0,1393.34,298.58Z"/><path class="cls-39" d="M1394.57,334.82c0-23.69,35.2-20.74,35.2,0Z"/></g></svg>