<svg xmlns="http://www.w3.org/2000/svg" xmlns:xlink="http://www.w3.org/1999/xlink" viewBox="0 0 978 570"><defs><style>.cls-1{fill:none;}.cls-2{clip-path:url(#clip-path);}.cls-3{fill:url(#Dégradé_sans_nom_121);}.cls-4{clip-path:url(#clip-path-2);}.cls-5{fill:url(#Dégradé_sans_nom_89);}.cls-6{fill:url(#Dégradé_sans_nom_46);}.cls-7{fill:#009c90;}.cls-8{clip-path:url(#clip-path-3);}.cls-9{fill:url(#Dégradé_sans_nom_89-2);}.cls-10{fill:url(#Dégradé_sans_nom_46-2);}.cls-11{fill:url(#Dégradé_sans_nom_46-3);}.cls-12{fill:url(#Dégradé_sans_nom_46-4);}.cls-13{fill:url(#Dégradé_sans_nom_46-5);}.cls-14{fill:url(#Dégradé_sans_nom_46-6);}.cls-15{fill:url(#Dégradé_sans_nom_46-7);}.cls-16{fill:url(#Dégradé_sans_nom_46-8);}.cls-17{fill:url(#Dégradé_sans_nom_46-9);}.cls-18{fill:url(#Dégradé_sans_nom_46-10);}.cls-19{fill:url(#Dégradé_sans_nom_46-11);}.cls-20{fill:url(#Dégradé_sans_nom_46-12);}.cls-21{fill:url(#Dégradé_sans_nom_46-13);}.cls-22{fill:url(#Dégradé_sans_nom_46-14);}.cls-23{fill:url(#Dégradé_sans_nom_46-15);}.cls-24{fill:url(#Dégradé_sans_nom_46-16);}.cls-25{fill:url(#Dégradé_sans_nom_46-17);}.cls-26{fill:url(#Dégradé_sans_nom_46-18);}.cls-27{fill:url(#Dégradé_sans_nom_46-19);}.cls-28{fill:url(#Dégradé_sans_nom_46-20);}.cls-29{fill:url(#Dégradé_sans_nom_46-21);}.cls-30{fill:url(#Dégradé_sans_nom_46-22);}.cls-31{fill:url(#Dégradé_sans_nom_46-23);}.cls-32{fill:#ff5d31;}.cls-33{fill:#ffd62c;}.cls-34{fill:#fff;}.cls-35{fill:url(#Dégradé_sans_nom_46-24);}.cls-36{fill:url(#Dégradé_sans_nom_46-25);}.cls-37{fill:url(#Dégradé_sans_nom_46-26);}.cls-38{clip-path:url(#clip-path-4);}.cls-39{fill:url(#Dégradé_sans_nom_138);}.cls-40{clip-path:url(#clip-path-5);}.cls-41{fill:url(#Dégradé_sans_nom_89-3);}.cls-42{clip-path:url(#clip-path-6);}.cls-43{fill:url(#Dégradé_sans_nom_121-2);}.cls-44{clip-path:url(#clip-path-7);}.cls-45{fill:url(#Dégradé_sans_nom_138-2);}.cls-46{clip-path:url(#clip-path-8);}.cls-47{fill:url(#Dégradé_sans_nom_141);}.cls-48{clip-path:url(#clip-path-9);}.cls-49{fill:url(#Dégradé_sans_nom_141-2);}</style><clipPath id="clip-path"><rect class="cls-1" x="1001.85" y="-29.45" width="960" height="600" transform="translate(2963.7 541.11) rotate(-180)"/></clipPath><linearGradient id="Dégradé_sans_nom_121" x1="1370.16" y1="93.34" x2="631.54" y2="2122.66" gradientUnits="userSpaceOnUse"><stop offset="0" stop-color="#c7b299"/><stop offset="0.05" stop-color="#a5b391"/><stop offset="0.11" stop-color="#7db388"/><stop offset="0.17" stop-color="#5cb480"/><stop offset="0.24" stop-color="#43b47a"/><stop offset="0.3" stop-color="#30b576"/><stop offset="0.37" stop-color="#26b574"/><stop offset="0.45" stop-color="#22b573"/></linearGradient><clipPath id="clip-path-2"><rect class="cls-1" x="-919.15" y="-1270.45" width="960" height="600"/></clipPath><linearGradient id="Dégradé_sans_nom_89" x1="-327.46" y1="-1147.66" x2="411.16" y2="881.66" gradientUnits="userSpaceOnUse"><stop offset="0" stop-color="#15d86f"/><stop offset="0.07" stop-color="#0ec97d"/><stop offset="0.19" stop-color="#06b78f"/><stop offset="0.31" stop-color="#02ad9a"/><stop offset="0.45" stop-color="#00a99d"/></linearGradient><linearGradient id="Dégradé_sans_nom_46" x1="609.38" y1="148.34" x2="609.38" y2="72.5" gradientUnits="userSpaceOnUse"><stop offset="0" stop-color="#00857b"/><stop offset="0.33" stop-color="#02887a"/><stop offset="0.59" stop-color="#099279"/><stop offset="0.82" stop-color="#15a276"/><stop offset="1" stop-color="#22b573"/></linearGradient><clipPath id="clip-path-3"><rect class="cls-1" x="17.85" y="-28.45" width="960" height="600"/></clipPath><linearGradient id="Dégradé_sans_nom_89-2" x1="609.54" y1="94.34" x2="1348.16" y2="2123.66" xlink:href="#Dégradé_sans_nom_89"/><linearGradient id="Dégradé_sans_nom_46-2" x1="940.12" y1="396.93" x2="940.12" y2="276.56" xlink:href="#Dégradé_sans_nom_46"/><linearGradient id="Dégradé_sans_nom_46-3" x1="857.39" y1="435.63" x2="857.39" y2="315.27" xlink:href="#Dégradé_sans_nom_46"/><linearGradient id="Dégradé_sans_nom_46-4" x1="800.57" y1="344.44" x2="800.57" y2="226.65" xlink:href="#Dégradé_sans_nom_46"/><linearGradient id="Dégradé_sans_nom_46-5" x1="867.03" y1="265.53" x2="867.03" y2="158.77" xlink:href="#Dégradé_sans_nom_46"/><linearGradient id="Dégradé_sans_nom_46-6" x1="935.52" y1="228.74" x2="935.52" y2="131.15" xlink:href="#Dégradé_sans_nom_46"/><linearGradient id="Dégradé_sans_nom_46-7" x1="856.95" y1="89.07" x2="856.95" y2="0.49" xlink:href="#Dégradé_sans_nom_46"/><linearGradient id="Dégradé_sans_nom_46-8" x1="767.95" y1="80.9" x2="767.95" y2="9" xlink:href="#Dégradé_sans_nom_46"/><linearGradient id="Dégradé_sans_nom_46-9" x1="730.14" y1="231.72" x2="730.14" y2="117.42" xlink:href="#Dégradé_sans_nom_46"/><linearGradient id="Dégradé_sans_nom_46-10" x1="467.02" y1="181.41" x2="467.02" y2="113.48" xlink:href="#Dégradé_sans_nom_46"/><linearGradient id="Dégradé_sans_nom_46-11" x1="894.68" y1="149.64" x2="894.68" y2="51.25" xlink:href="#Dégradé_sans_nom_46"/><linearGradient id="Dégradé_sans_nom_46-12" x1="587.99" y1="238.57" x2="587.99" y2="124.91" xlink:href="#Dégradé_sans_nom_46"/><linearGradient id="Dégradé_sans_nom_46-13" x1="505.39" y1="298.35" x2="505.39" y2="184.69" xlink:href="#Dégradé_sans_nom_46"/><linearGradient id="Dégradé_sans_nom_46-14" x1="465.39" y1="390.35" x2="465.39" y2="276.69" xlink:href="#Dégradé_sans_nom_46"/><linearGradient id="Dégradé_sans_nom_46-15" x1="311.39" y1="413.35" x2="311.39" y2="299.69" xlink:href="#Dégradé_sans_nom_46"/><linearGradient id="Dégradé_sans_nom_46-16" x1="217.39" y1="459.35" x2="217.39" y2="345.69" xlink:href="#Dégradé_sans_nom_46"/><linearGradient id="Dégradé_sans_nom_46-17" x1="334.73" y1="295.85" x2="334.73" y2="220.17" xlink:href="#Dégradé_sans_nom_46"/><linearGradient id="Dégradé_sans_nom_46-18" x1="677.18" y1="308.8" x2="677.18" y2="189.71" xlink:href="#Dégradé_sans_nom_46"/><linearGradient id="Dégradé_sans_nom_46-19" x1="652.01" y1="433.83" x2="652.01" y2="314.74" xlink:href="#Dégradé_sans_nom_46"/><linearGradient id="Dégradé_sans_nom_46-20" x1="560.01" y1="455.83" x2="560.01" y2="336.74" xlink:href="#Dégradé_sans_nom_46"/><linearGradient id="Dégradé_sans_nom_46-21" x1="403.99" y1="310.73" x2="403.99" y2="221.48" xlink:href="#Dégradé_sans_nom_46"/><linearGradient id="Dégradé_sans_nom_46-22" x1="546.38" y1="155.34" x2="546.38" y2="79.5" xlink:href="#Dégradé_sans_nom_46"/><linearGradient id="Dégradé_sans_nom_46-23" x1="805.4" y1="193.05" x2="805.4" y2="79.39" xlink:href="#Dégradé_sans_nom_46"/><linearGradient id="Dégradé_sans_nom_46-24" x1="-5155.69" y1="399.2" x2="-5155.69" y2="285.54" gradientTransform="matrix(-1, 0, 0, 1, -4405.55, 0)" xlink:href="#Dégradé_sans_nom_46"/><linearGradient id="Dégradé_sans_nom_46-25" x1="-4791.69" y1="456.2" x2="-4791.69" y2="342.54" gradientTransform="matrix(-1, 0, 0, 1, -4405.55, 0)" xlink:href="#Dégradé_sans_nom_46"/><linearGradient id="Dégradé_sans_nom_46-26" x1="-5063.75" y1="153.61" x2="-5063.75" y2="59.53" gradientTransform="matrix(-1, 0, 0, 1, -4405.55, 0)" xlink:href="#Dégradé_sans_nom_46"/><clipPath id="clip-path-4"><rect class="cls-1" x="-927.15" y="-531.26" width="800" height="520"/></clipPath><linearGradient id="Dégradé_sans_nom_138" x1="-449.87" y1="-312.43" x2="-1436.07" y2="1395.71" gradientUnits="userSpaceOnUse"><stop offset="0" stop-color="#80ef62"/><stop offset="0.04" stop-color="#62e966"/><stop offset="0.11" stop-color="#2bdd6c"/><stop offset="0.14" stop-color="#15d86f"/></linearGradient><clipPath id="clip-path-5"><rect class="cls-1" x="-919.15" y="-1272.45" width="960" height="600"/></clipPath><linearGradient id="Dégradé_sans_nom_89-3" x1="-327.46" y1="-1149.66" x2="411.16" y2="879.66" xlink:href="#Dégradé_sans_nom_89"/><clipPath id="clip-path-6"><rect class="cls-1" x="40.85" y="-1272.45" width="960" height="600" transform="translate(1041.7 -1944.89) rotate(-180)"/></clipPath><linearGradient id="Dégradé_sans_nom_121-2" x1="409.16" y1="-1149.66" x2="-329.46" y2="879.66" xlink:href="#Dégradé_sans_nom_121"/><clipPath id="clip-path-7"><rect class="cls-1" x="-919.15" y="-1193.26" width="800" height="520"/></clipPath><linearGradient id="Dégradé_sans_nom_138-2" x1="-441.87" y1="-974.43" x2="-1428.07" y2="733.71" xlink:href="#Dégradé_sans_nom_138"/><clipPath id="clip-path-8"><rect class="cls-1" x="200.85" y="-1193.26" width="800" height="520" transform="translate(1201.7 -1866.51) rotate(-180)"/></clipPath><linearGradient id="Dégradé_sans_nom_141" x1="-5207.15" y1="-974.43" x2="-6193.34" y2="733.71" gradientTransform="matrix(-1, 0, 0, 1, -4683.57, 0)" gradientUnits="userSpaceOnUse"><stop offset="0" stop-color="#fefe9c"/><stop offset="0" stop-color="#fcfb9b"/><stop offset="0.06" stop-color="#e1dc91"/><stop offset="0.13" stop-color="#cbc188"/><stop offset="0.21" stop-color="#b8ab81"/><stop offset="0.3" stop-color="#aa9a7c"/><stop offset="0.41" stop-color="#a08f78"/><stop offset="0.57" stop-color="#9b8876"/><stop offset="1" stop-color="#998675"/></linearGradient><clipPath id="clip-path-9"><rect class="cls-1" x="-924.15" y="49.74" width="800" height="520" transform="translate(-1048.3 619.49) rotate(-180)"/></clipPath><linearGradient id="Dégradé_sans_nom_141-2" x1="-4082.15" y1="268.57" x2="-5068.34" y2="1976.71" xlink:href="#Dégradé_sans_nom_141"/></defs><title>foret</title><g id="Biome"><g class="cls-2"><circle class="cls-3" cx="1000.85" cy="1108" r="1079.49"/></g><g class="cls-4"><circle class="cls-5" cx="41.85" cy="-133" r="1079.49"/></g><path class="cls-6" d="M609.13,72.5c9.88,0,29.43,50.56,0,75.84C580.87,124.44,599.25,72.5,609.13,72.5Z"/><rect class="cls-7" x="607.43" y="99.85" width="3.35" height="63.47" rx="1.67"/><g class="cls-8"><circle class="cls-9" cx="978.85" cy="1109" r="1079.49"/></g><path class="cls-10" d="M939.72,276.56c15.67,0,46.69,80.25,0,120.37C894.87,359,924,276.56,939.72,276.56Z"/><rect class="cls-7" x="937.02" y="319.97" width="5.31" height="100.72" rx="2.66"/><path class="cls-11" d="M857,315.27c15.68,0,46.7,80.24,0,120.36C812.15,397.7,841.31,315.27,857,315.27Z"/><rect class="cls-7" x="854.29" y="358.68" width="5.31" height="100.72" rx="2.66"/><path class="cls-12" d="M800.18,226.65c15.34,0,45.69,78.52,0,117.79C756.3,307.32,784.84,226.65,800.18,226.65Z"/><rect class="cls-7" x="797.54" y="269.13" width="5.2" height="98.57" rx="2.23"/><path class="cls-13" d="M866.68,158.77c13.9,0,41.41,71.17,0,106.76C826.91,231.89,852.77,158.77,866.68,158.77Z"/><rect class="cls-7" x="864.29" y="197.27" width="4.71" height="89.34" rx="2.35"/><path class="cls-14" d="M935.2,131.15c12.71,0,37.86,65.06,0,97.59C898.84,198,922.48,131.15,935.2,131.15Z"/><rect class="cls-7" x="933.01" y="166.34" width="4.31" height="81.67" rx="2.15"/><path class="cls-15" d="M856.65.49c11.54,0,34.37,59.05,0,88.58C823.66,61.16,845.12.49,856.65.49Z"/><rect class="cls-7" x="854.67" y="32.44" width="3.91" height="74.12" rx="1.95"/><path class="cls-16" d="M767.71,9c9.37,0,27.89,47.93,0,71.9C740.93,58.24,758.35,9,767.71,9Z"/><rect class="cls-7" x="766.1" y="34.93" width="3.17" height="60.16" rx="1.59"/><path class="cls-17" d="M729.76,117.42c14.88,0,44.34,76.2,0,114.3C687.17,195.7,714.87,117.42,729.76,117.42Z"/><rect class="cls-7" x="727.19" y="158.64" width="5.04" height="95.65" rx="2.52"/><path class="cls-18" d="M466.79,113.48c8.85,0,26.35,45.28,0,67.93C441.49,160,457.94,113.48,466.79,113.48Z"/><rect class="cls-7" x="465.27" y="137.98" width="3" height="56.84" rx="1.5"/><path class="cls-19" d="M894.35,51.25c12.82,0,38.17,65.59,0,98.39C857.7,118.63,881.54,51.25,894.35,51.25Z"/><rect class="cls-7" x="892.15" y="86.73" width="4.34" height="82.33" rx="1.5"/><path class="cls-20" d="M587.61,124.91c14.8,0,44.09,75.77,0,113.66C545.26,202.75,572.8,124.91,587.61,124.91Z"/><rect class="cls-7" x="585.06" y="165.9" width="5.01" height="95.12" rx="1.5"/><path class="cls-21" d="M505,184.69c14.81,0,44.1,75.78,0,113.66C462.67,262.54,490.21,184.69,505,184.69Z"/><rect class="cls-7" x="502.46" y="225.68" width="5.01" height="95.12" rx="1.5"/><path class="cls-22" d="M465,276.69c14.81,0,44.1,75.78,0,113.66C422.67,354.54,450.21,276.69,465,276.69Z"/><rect class="cls-7" x="462.46" y="317.68" width="5.01" height="95.12" rx="1.5"/><path class="cls-23" d="M311,299.69c14.81,0,44.1,75.78,0,113.66C268.67,377.54,296.21,299.69,311,299.69Z"/><rect class="cls-7" x="308.46" y="340.68" width="5.01" height="95.12" rx="1.5"/><path class="cls-24" d="M217,345.69c14.81,0,44.1,75.78,0,113.66C174.67,423.54,202.21,345.69,217,345.69Z"/><rect class="cls-7" x="214.46" y="386.68" width="5.01" height="95.12" rx="1.5"/><path class="cls-25" d="M334.47,220.17c9.86,0,29.36,50.46,0,75.68C306.28,272,324.62,220.17,334.47,220.17Z"/><rect class="cls-7" x="332.78" y="247.47" width="3.34" height="63.33" rx="1.5"/><path class="cls-26" d="M676.79,189.71c15.51,0,46.2,79.39,0,119.09C632.42,271.27,661.27,189.71,676.79,189.71Z"/><rect class="cls-7" x="674.12" y="232.66" width="5.25" height="99.66" rx="1.5"/><path class="cls-27" d="M651.61,314.74c15.51,0,46.2,79.4,0,119.09C607.24,396.3,636.1,314.74,651.61,314.74Z"/><rect class="cls-7" x="648.94" y="357.69" width="5.25" height="99.66" rx="1.5"/><path class="cls-28" d="M559.61,336.74c15.51,0,46.2,79.4,0,119.09C515.24,418.3,544.1,336.74,559.61,336.74Z"/><rect class="cls-7" x="556.94" y="379.69" width="5.25" height="99.66" rx="1.5"/><path class="cls-29" d="M403.69,221.48c11.62,0,34.62,59.5,0,89.25C370.44,282.6,392.06,221.48,403.69,221.48Z"/><rect class="cls-7" x="401.69" y="253.66" width="3.94" height="74.69" rx="1.5"/><path class="cls-30" d="M546.13,79.5c9.88,0,29.43,50.56,0,75.84C517.87,131.44,536.25,79.5,546.13,79.5Z"/><rect class="cls-7" x="544.43" y="106.85" width="3.35" height="63.47" rx="1.67"/><path class="cls-31" d="M805,79.39c14.81,0,44.1,75.77,0,113.66C762.68,157.23,790.22,79.39,805,79.39Z"/><rect class="cls-7" x="802.47" y="120.38" width="5.01" height="95.12" rx="1.5"/><g id="oiseau"><path class="cls-32" d="M811.32,96.51v11.24c3.42-.6,6.22-2,7.15-5.62V96.51Z"/><rect class="cls-32" x="811.32" y="93.11" width="7.15" height="9.02" rx="3.57"/><path class="cls-33" d="M817.36,96v2.07h3.07C819.66,96.61,818.72,95.67,817.36,96Z"/><circle class="cls-34" cx="815.05" cy="95.56" r="1.1"/><circle cx="815.05" cy="95.56" r="0.55"/></g><path class="cls-35" d="M750.51,285.54c-14.8,0-44.09,75.78,0,113.66C792.86,363.39,765.32,285.54,750.51,285.54Z"/><rect class="cls-7" x="748.05" y="326.53" width="5.01" height="95.12" rx="1.5" transform="translate(1501.11 748.18) rotate(-180)"/><g id="oiseau-2" data-name="oiseau"><path class="cls-32" d="M744.21,302.66V313.9c-3.42-.59-6.22-1.95-7.15-5.62v-5.62Z"/><rect class="cls-32" x="737.06" y="299.26" width="7.15" height="9.02" rx="3.57" transform="translate(1481.27 607.54) rotate(-180)"/><path class="cls-33" d="M738.17,302.14v2.08h-3.06C735.88,302.77,736.81,301.82,738.17,302.14Z"/><circle class="cls-34" cx="740.48" cy="301.71" r="1.1"/><circle cx="740.48" cy="301.71" r="0.55"/></g><path class="cls-36" d="M386.51,342.54c-14.8,0-44.09,75.78,0,113.66C428.86,420.39,401.32,342.54,386.51,342.54Z"/><rect class="cls-7" x="384.05" y="383.53" width="5.01" height="95.12" rx="1.5" transform="translate(773.11 862.18) rotate(-180)"/><g id="oiseau-3" data-name="oiseau"><path class="cls-32" d="M380.21,359.66V370.9c-3.42-.59-6.22-1.95-7.15-5.62v-5.62Z"/><rect class="cls-32" x="373.06" y="356.26" width="7.15" height="9.02" rx="3.57" transform="translate(753.27 721.54) rotate(-180)"/><path class="cls-33" d="M374.17,359.14v2.08h-3.06C371.88,359.77,372.81,358.82,374.17,359.14Z"/><circle class="cls-34" cx="376.48" cy="358.71" r="1.1"/><circle cx="376.48" cy="358.71" r="0.55"/></g><path class="cls-37" d="M658.51,59.53c-12.26,0-36.5,62.72,0,94.08C693.56,124,670.76,59.53,658.51,59.53Z"/><rect class="cls-7" x="656.47" y="93.46" width="4.15" height="78.74" rx="1.5" transform="translate(1317.09 265.66) rotate(-180)"/><g id="oiseau-4" data-name="oiseau"><path class="cls-32" d="M653.29,73.7V83c-2.83-.49-5.15-1.62-5.91-4.65V73.7Z"/><rect class="cls-32" x="647.38" y="70.88" width="5.92" height="7.47" rx="2.96" transform="translate(1300.67 149.23) rotate(180)"/><path class="cls-33" d="M648.29,73.27V75h-2.53C646.39,73.79,647.17,73,648.29,73.27Z"/><circle class="cls-34" cx="650.21" cy="72.91" r="0.91"/><circle cx="650.21" cy="72.91" r="0.46"/></g><g class="cls-38"><circle class="cls-39" cx="-942.97" cy="541.64" r="986.03"/></g><g class="cls-40"><circle class="cls-41" cx="41.85" cy="-135" r="1079.49"/></g><g class="cls-42"><circle class="cls-43" cx="39.85" cy="-135" r="1079.49"/></g><g class="cls-44"><circle class="cls-45" cx="-934.97" cy="-120.36" r="986.03"/></g></g><g id="nuage"><g class="cls-46"><circle class="cls-47" cx="1016.67" cy="-120.36" r="986.03"/></g><g class="cls-48"><circle class="cls-49" cx="-108.33" cy="1122.64" r="986.03"/></g></g></svg>