<svg xmlns="http://www.w3.org/2000/svg" xmlns:xlink="http://www.w3.org/1999/xlink" viewBox="0 0 340.03 196.86"><defs><style>.cls-1{fill:none;}.cls-2{fill:#4d4d4d;}.cls-3{clip-path:url(#clip-path);}.cls-4{fill:#22b573;}.cls-5{fill:#00a99d;}</style><clipPath id="clip-path"><circle class="cls-1" cx="167.89" cy="42.5" r="42.5"/></clipPath></defs><title>Plan de travail 16</title><g id="nuage"><path class="cls-2" d="M59.71,112.16V96.93A2.64,2.64,0,0,1,60.42,95a2.47,2.47,0,0,1,1.87-.75,2.57,2.57,0,0,1,2.65,2.66v19.92a16.79,16.79,0,0,1,6-5.13,17.56,17.56,0,0,1,8.1-1.87A17.88,17.88,0,0,1,95,119.13a19.36,19.36,0,0,1,2.42,9.62A19.1,19.1,0,0,1,95,138.41a18,18,0,0,1-6.8,6.83,19.9,19.9,0,0,1-19.24,0,18,18,0,0,1-6.8-6.83,19.09,19.09,0,0,1-2.48-9.66v-16A1.88,1.88,0,0,1,59.71,112.16ZM78.54,143a13.53,13.53,0,0,0,7-1.87,13.28,13.28,0,0,0,5-5.1,15.39,15.39,0,0,0,0-14.48,13.2,13.2,0,0,0-5-5.07,13.79,13.79,0,0,0-7-1.83A13.14,13.14,0,0,0,69.4,118a13.59,13.59,0,0,0-4.46,8.7.69.69,0,0,1-.07.34c0,.36-.06.93-.06,1.7a14.59,14.59,0,0,0,1.8,7.24,13.41,13.41,0,0,0,11.93,7Z"/><path class="cls-2" d="M114,96.72a3.5,3.5,0,0,1,1.09,2.66,3.72,3.72,0,0,1-3.74,3.74,3.51,3.51,0,0,1-2.62-1.09,3.65,3.65,0,0,1-1.06-2.65,3.5,3.5,0,0,1,1.09-2.66,3.74,3.74,0,0,1,2.65-1A3.67,3.67,0,0,1,114,96.72Zm-4.49,14.21a2.6,2.6,0,0,1,1.9-.74,2.49,2.49,0,0,1,1.87.74,2.65,2.65,0,0,1,.72,1.91v31.89a2.61,2.61,0,0,1-.72,1.9,2.46,2.46,0,0,1-1.87.75,2.57,2.57,0,0,1-2.65-2.65V112.84A2.59,2.59,0,0,1,109.55,110.93Z"/><path class="cls-2" d="M154,112.29a18,18,0,0,1,6.77,6.8,20.36,20.36,0,0,1,0,19.42,17.63,17.63,0,0,1-6.76,6.76,20.39,20.39,0,0,1-19.38,0,17.59,17.59,0,0,1-6.77-6.76,19.33,19.33,0,0,1-2.45-9.69,19.56,19.56,0,0,1,2.45-9.73,17.63,17.63,0,0,1,6.77-6.8,20.38,20.38,0,0,1,19.34,0Zm-16.69,4.15a13.23,13.23,0,0,0-5,5.07,15.6,15.6,0,0,0,0,14.55,13.23,13.23,0,0,0,5,5.07,14.51,14.51,0,0,0,14.11,0,13,13,0,0,0,4.89-5.07,15.84,15.84,0,0,0,0-14.55,13,13,0,0,0-4.89-5.07,14.51,14.51,0,0,0-14.11,0Z"/><path class="cls-2" d="M219.67,111.68a12.79,12.79,0,0,1,4.83,5.41,18,18,0,0,1,1.74,8.12V144.8a2.45,2.45,0,0,1-2.59,2.58,2.66,2.66,0,0,1-1.9-.71,2.47,2.47,0,0,1-.75-1.87V125.21a11.23,11.23,0,0,0-2.48-7.65,8.25,8.25,0,0,0-6.5-2.82,9,9,0,0,0-6.93,2.86,10.33,10.33,0,0,0-2.59,7.48V144.8a2.52,2.52,0,0,1-.71,1.87,2.56,2.56,0,0,1-1.87.71,2.65,2.65,0,0,1-1.9-.71,2.47,2.47,0,0,1-.75-1.87V125.21a11.23,11.23,0,0,0-2.48-7.65,8.25,8.25,0,0,0-6.5-2.82,9.25,9.25,0,0,0-6.93,2.79,9.78,9.78,0,0,0-2.72,7.14V144.8a2.45,2.45,0,0,1-2.59,2.58,2.66,2.66,0,0,1-1.9-.71,2.47,2.47,0,0,1-.75-1.87v-32a2.55,2.55,0,0,1,2.65-2.65,2.49,2.49,0,0,1,1.87.74,2.65,2.65,0,0,1,.72,1.91v1.49a13,13,0,0,1,4.52-3.36,13.6,13.6,0,0,1,5.68-1.19,13.43,13.43,0,0,1,6.73,1.7,12.65,12.65,0,0,1,4.76,4.76,13.71,13.71,0,0,1,5.13-4.76,14.82,14.82,0,0,1,7.11-1.7A13.26,13.26,0,0,1,219.67,111.68Z"/><path class="cls-2" d="M262.55,112.19a16.08,16.08,0,0,1,6,6.5,20.36,20.36,0,0,1,2.14,9.45,2.29,2.29,0,0,1-.68,1.73,2.49,2.49,0,0,1-1.77.65H240.79A13.38,13.38,0,0,0,254.66,143a15.09,15.09,0,0,0,4.93-.85,12.13,12.13,0,0,0,4-2.14,3,3,0,0,1,1.83-.68,2.56,2.56,0,0,1,1.5.54,2.46,2.46,0,0,1,.88,1.84,2,2,0,0,1-.75,1.56,18.24,18.24,0,0,1-5.71,3.16,19.72,19.72,0,0,1-16.39-1.15,17.25,17.25,0,0,1-6.69-6.73,19.65,19.65,0,0,1-2.42-9.76A20.75,20.75,0,0,1,238.1,119a16.82,16.82,0,0,1,6.32-6.73,17.64,17.64,0,0,1,9.22-2.41A16.93,16.93,0,0,1,262.55,112.19Zm-17.48,5.54a13.89,13.89,0,0,0-4.15,8.44h24.89a13.31,13.31,0,0,0-3.81-8.44,11.43,11.43,0,0,0-8.36-3.19A12,12,0,0,0,245.07,117.73Z"/><g class="cls-3"><circle class="cls-4" cx="139.36" cy="82.41" r="39.91"/><path class="cls-5" d="M183,48a32.36,32.36,0,0,0-13.63,3,39.89,39.89,0,0,1,.77,59.4A32.53,32.53,0,1,0,183,48Z"/></g><ellipse class="cls-1" cx="78.47" cy="128.81" rx="12.38" ry="12.85"/><path class="cls-2" d="M67.21,130.28a11.72,11.72,0,0,0,11.42,10.49,11,11,0,0,0,3.05-.44A13.86,13.86,0,0,0,68.5,130.21,10.91,10.91,0,0,0,67.21,130.28Z"/></g></svg>