<svg xmlns="http://www.w3.org/2000/svg" xmlns:xlink="http://www.w3.org/1999/xlink" viewBox="0 0 1918 112"><defs><style>.cls-1{fill:#3fa9f5;}.cls-2{fill:#97e4fc;}.cls-3{fill:#6edff9;}.cls-4{fill:#4d4d4d;}.cls-5{fill:#f2f2f2;}.cls-6{fill:#ccc;}.cls-7{fill:#b3b3b3;}.cls-8{opacity:0.8;fill:url(#Dégradé_sans_nom_152);}</style><linearGradient id="Dégradé_sans_nom_152" x1="-488.75" y1="112" x2="-488.75" gradientTransform="matrix(-1, 0, 0, 1, 469.5, 0)" gradientUnits="userSpaceOnUse"><stop offset="0" stop-color="#2e5a92"/><stop offset="1" stop-color="#00a99d"/></linearGradient></defs><title>mer_dechet</title><g id="Océan"><g id="mer_déchets" data-name="mer déchets"><rect class="cls-1" x="1147.69" y="9.89" width="3.11" height="3.11" rx="0.98" transform="translate(16.44 205.47) rotate(-10.29)"/><rect class="cls-2" x="1123.02" y="9.22" width="25.51" height="9.33" rx="4.67" transform="translate(15.79 203.1) rotate(-10.29)"/><rect class="cls-3" x="1137.26" y="8.44" width="5.6" height="9.33" transform="translate(15.99 203.86) rotate(-10.29)"/><rect class="cls-1" x="84.03" y="11.32" width="3.11" height="3.11" rx="0.98" transform="translate(170.17 31.17) rotate(-176.35)"/><rect class="cls-2" x="86.49" y="9.08" width="25.51" height="9.33" rx="4.67" transform="translate(197.41 33.78) rotate(-176.35)"/><rect class="cls-3" x="92.1" y="8.8" width="5.6" height="9.33" transform="translate(188.74 32.95) rotate(-176.35)"/><path class="cls-4" d="M1012,13a17,17,0,1,0,17,17A17,17,0,0,0,1012,13Zm0,29a12,12,0,1,1,12-12A12,12,0,0,1,1012,42Z"/><path class="cls-5" d="M1012,18a12,12,0,1,0,12,12A12,12,0,0,0,1012,18Zm1.43,3.12a9,9,0,0,1,6.38,4.41l-4,1.42a4.83,4.83,0,0,0-2.66-1.71Zm-2.86,0,.25,4.12a5,5,0,0,0-2.69,1.74l-4-1.41A9,9,0,0,1,1010.57,21.12ZM1003,30a8.57,8.57,0,0,1,.18-1.77l4,.9a4.88,4.88,0,0,0,.58,3.33l-2.85,3.06A8.93,8.93,0,0,1,1003,30Zm9,9a8.94,8.94,0,0,1-5-1.49l2.41-3.32a4.88,4.88,0,0,0,2.54.72,5,5,0,0,0,2.11-.48l3,3A8.87,8.87,0,0,1,1012,39Zm7.2-3.61L1016,32.86a5,5,0,0,0,.92-2.86,4.5,4.5,0,0,0-.09-.9l4-.9A8.86,8.86,0,0,1,1021,30,9,9,0,0,1,1019.2,35.39Z"/><path class="cls-6" d="M1012,19a11,11,0,1,0,11,11A11,11,0,0,0,1012,19Zm1.43,2.12a9,9,0,0,1,6.38,4.41l-4,1.42a4.83,4.83,0,0,0-2.66-1.71Zm-2.86,0,.25,4.12a5,5,0,0,0-2.69,1.74l-4-1.41A9,9,0,0,1,1010.57,21.12ZM1003,30a8.57,8.57,0,0,1,.18-1.77l4,.9a4.88,4.88,0,0,0,.58,3.33l-2.85,3.06A8.93,8.93,0,0,1,1003,30Zm9,9a8.94,8.94,0,0,1-5-1.49l2.41-3.32a4.88,4.88,0,0,0,2.54.72,5,5,0,0,0,2.11-.48l3,3A8.87,8.87,0,0,1,1012,39Zm7.2-3.61L1016,32.86a5,5,0,0,0,.92-2.86,4.5,4.5,0,0,0-.09-.9l4-.9A8.86,8.86,0,0,1,1021,30,9,9,0,0,1,1019.2,35.39Z"/><path class="cls-4" d="M283,29a17,17,0,1,0,17,17A17,17,0,0,0,283,29Zm0,29a12,12,0,1,1,12-12A12,12,0,0,1,283,58Z"/><path class="cls-5" d="M283,34a12,12,0,1,0,12,12A12,12,0,0,0,283,34Zm1.43,3.12a9,9,0,0,1,6.38,4.41l-4,1.42a4.83,4.83,0,0,0-2.66-1.71Zm-2.86,0,.25,4.12A5,5,0,0,0,279.13,43l-4-1.41A9,9,0,0,1,281.57,37.12ZM274,46a8.57,8.57,0,0,1,.18-1.77l4,.9a4.88,4.88,0,0,0,.58,3.33l-2.85,3.06A8.93,8.93,0,0,1,274,46Zm9,9a8.94,8.94,0,0,1-4.95-1.49l2.41-3.32a4.88,4.88,0,0,0,2.54.72,5,5,0,0,0,2.11-.48l3,3A8.87,8.87,0,0,1,283,55Zm7.2-3.61L287,48.86a5,5,0,0,0,.92-2.86,4.5,4.5,0,0,0-.09-.9l4-.9A8.86,8.86,0,0,1,292,46,9,9,0,0,1,290.2,51.39Z"/><path class="cls-6" d="M283,35a11,11,0,1,0,11,11A11,11,0,0,0,283,35Zm1.43,2.12a9,9,0,0,1,6.38,4.41l-4,1.42a4.83,4.83,0,0,0-2.66-1.71Zm-2.86,0,.25,4.12A5,5,0,0,0,279.13,43l-4-1.41A9,9,0,0,1,281.57,37.12ZM274,46a8.57,8.57,0,0,1,.18-1.77l4,.9a4.88,4.88,0,0,0,.58,3.33l-2.85,3.06A8.93,8.93,0,0,1,274,46Zm9,9a8.94,8.94,0,0,1-4.95-1.49l2.41-3.32a4.88,4.88,0,0,0,2.54.72,5,5,0,0,0,2.11-.48l3,3A8.87,8.87,0,0,1,283,55Zm7.2-3.61L287,48.86a5,5,0,0,0,.92-2.86,4.5,4.5,0,0,0-.09-.9l4-.9A8.86,8.86,0,0,1,292,46,9,9,0,0,1,290.2,51.39Z"/><path class="cls-4" d="M326,67a17,17,0,1,0,17,17A17,17,0,0,0,326,67Zm0,29a12,12,0,1,1,12-12A12,12,0,0,1,326,96Z"/><path class="cls-5" d="M326,72a12,12,0,1,0,12,12A12,12,0,0,0,326,72Zm1.43,3.12a9,9,0,0,1,6.38,4.41l-4,1.42a4.83,4.83,0,0,0-2.66-1.71Zm-2.86,0,.25,4.12A5,5,0,0,0,322.13,81l-4-1.41A9,9,0,0,1,324.57,75.12ZM317,84a8.57,8.57,0,0,1,.18-1.77l4,.9a4.88,4.88,0,0,0,.58,3.33l-2.85,3.06A8.93,8.93,0,0,1,317,84Zm9,9a8.94,8.94,0,0,1-4.95-1.49l2.41-3.32a4.88,4.88,0,0,0,2.54.72,5,5,0,0,0,2.11-.48l3,3A8.87,8.87,0,0,1,326,93Zm7.2-3.61L330,86.86a5,5,0,0,0,.92-2.86,4.5,4.5,0,0,0-.09-.9l4-.9A8.86,8.86,0,0,1,335,84,9,9,0,0,1,333.2,89.39Z"/><path class="cls-6" d="M326,73a11,11,0,1,0,11,11A11,11,0,0,0,326,73Zm1.43,2.12a9,9,0,0,1,6.38,4.41l-4,1.42a4.83,4.83,0,0,0-2.66-1.71Zm-2.86,0,.25,4.12A5,5,0,0,0,322.13,81l-4-1.41A9,9,0,0,1,324.57,75.12ZM317,84a8.57,8.57,0,0,1,.18-1.77l4,.9a4.88,4.88,0,0,0,.58,3.33l-2.85,3.06A8.93,8.93,0,0,1,317,84Zm9,9a8.94,8.94,0,0,1-4.95-1.49l2.41-3.32a4.88,4.88,0,0,0,2.54.72,5,5,0,0,0,2.11-.48l3,3A8.87,8.87,0,0,1,326,93Zm7.2-3.61L330,86.86a5,5,0,0,0,.92-2.86,4.5,4.5,0,0,0-.09-.9l4-.9A8.86,8.86,0,0,1,335,84,9,9,0,0,1,333.2,89.39Z"/><path class="cls-4" d="M1708,74a17,17,0,1,0,17,17A17,17,0,0,0,1708,74Zm0,29a12,12,0,1,1,12-12A12,12,0,0,1,1708,103Z"/><path class="cls-5" d="M1708,79a12,12,0,1,0,12,12A12,12,0,0,0,1708,79Zm1.43,3.12a9,9,0,0,1,6.38,4.41l-4,1.42a4.83,4.83,0,0,0-2.66-1.71Zm-2.86,0,.25,4.12a5,5,0,0,0-2.69,1.74l-4-1.41A9,9,0,0,1,1706.57,82.12ZM1699,91a8.57,8.57,0,0,1,.18-1.77l4,.9a4.88,4.88,0,0,0,.58,3.33l-2.85,3.06A8.93,8.93,0,0,1,1699,91Zm9,9a8.94,8.94,0,0,1-5-1.49l2.41-3.32a4.88,4.88,0,0,0,2.54.72,5,5,0,0,0,2.11-.48l3,3A8.87,8.87,0,0,1,1708,100Zm7.2-3.61L1712,93.86a5,5,0,0,0,.92-2.86,4.5,4.5,0,0,0-.09-.9l4-.9A8.86,8.86,0,0,1,1717,91,9,9,0,0,1,1715.2,96.39Z"/><path class="cls-6" d="M1708,80a11,11,0,1,0,11,11A11,11,0,0,0,1708,80Zm1.43,2.12a9,9,0,0,1,6.38,4.41l-4,1.42a4.83,4.83,0,0,0-2.66-1.71Zm-2.86,0,.25,4.12a5,5,0,0,0-2.69,1.74l-4-1.41A9,9,0,0,1,1706.57,82.12ZM1699,91a8.57,8.57,0,0,1,.18-1.77l4,.9a4.88,4.88,0,0,0,.58,3.33l-2.85,3.06A8.93,8.93,0,0,1,1699,91Zm9,9a8.94,8.94,0,0,1-5-1.49l2.41-3.32a4.88,4.88,0,0,0,2.54.72,5,5,0,0,0,2.11-.48l3,3A8.87,8.87,0,0,1,1708,100Zm7.2-3.61L1712,93.86a5,5,0,0,0,.92-2.86,4.5,4.5,0,0,0-.09-.9l4-.9A8.86,8.86,0,0,1,1717,91,9,9,0,0,1,1715.2,96.39Z"/><rect class="cls-1" x="583.41" y="38.95" width="3.11" height="3.11" rx="0.98" transform="translate(1140.51 228.1) rotate(-165.3)"/><rect class="cls-2" x="585.45" y="39.32" width="25.51" height="9.33" rx="4.67" transform="matrix(-0.97, -0.25, 0.25, -0.97, 1165.68, 238.29)"/><rect class="cls-3" x="591.19" y="38.21" width="5.6" height="9.33" transform="translate(1157.67 235.05) rotate(-165.3)"/><rect class="cls-1" x="48.41" y="77.95" width="3.11" height="3.11" rx="0.98" transform="matrix(-0.97, -0.25, 0.25, -0.97, 78.12, 169.09)"/><rect class="cls-2" x="50.45" y="78.32" width="25.51" height="9.33" rx="4.67" transform="matrix(-0.97, -0.25, 0.25, -0.97, 103.29, 179.28)"/><rect class="cls-3" x="56.19" y="77.21" width="5.6" height="9.33" transform="translate(95.28 176.04) rotate(-165.3)"/><rect class="cls-1" x="455.15" y="72.34" width="3.11" height="3.11" rx="0.98" transform="translate(115.98 386.86) rotate(-51.76)"/><rect class="cls-2" x="435.47" y="79.98" width="25.51" height="9.33" rx="4.67" transform="translate(104.31 384.3) rotate(-51.76)"/><rect class="cls-3" x="448.13" y="76.56" width="5.6" height="9.33" transform="translate(108.02 385.11) rotate(-51.76)"/><rect class="cls-1" x="418.03" y="44.32" width="3.11" height="3.11" rx="0.98" transform="translate(835.39 118.34) rotate(-176.35)"/><rect class="cls-2" x="420.49" y="42.08" width="25.51" height="9.33" rx="4.67" transform="translate(862.63 120.95) rotate(-176.35)"/><rect class="cls-3" x="426.1" y="41.8" width="5.6" height="9.33" transform="translate(853.97 120.12) rotate(-176.35)"/><rect class="cls-1" x="204.66" y="19.75" width="3.11" height="3.11" rx="0.98" transform="translate(-0.29 39.54) rotate(-10.94)"/><rect class="cls-2" x="180.02" y="19.24" width="25.51" height="9.33" rx="4.67" transform="translate(-1.03 37.04) rotate(-10.94)"/><rect class="cls-3" x="194.25" y="18.41" width="5.6" height="9.33" transform="translate(-0.8 37.83) rotate(-10.94)"/><rect class="cls-1" x="674.69" y="39.89" width="3.11" height="3.11" rx="0.98" transform="translate(3.47 121.46) rotate(-10.29)"/><rect class="cls-2" x="650.02" y="39.22" width="25.51" height="9.33" rx="4.67" transform="translate(2.82 119.09) rotate(-10.29)"/><rect class="cls-3" x="664.26" y="38.44" width="5.6" height="9.33" transform="translate(3.03 119.85) rotate(-10.29)"/><rect class="cls-1" x="1037.53" y="51.88" width="3.11" height="3.11" rx="0.98" transform="translate(403.48 877.18) rotate(-55.29)"/><rect class="cls-2" x="1018.54" y="60.02" width="25.51" height="9.33" rx="4.67" transform="translate(390.87 875.62) rotate(-55.29)"/><rect class="cls-3" x="1030.97" y="56.44" width="5.6" height="9.33" transform="translate(394.88 876.12) rotate(-55.29)"/><rect class="cls-1" x="1335.42" y="21.92" width="3.11" height="3.11" rx="0.98" transform="translate(2623.18 389.15) rotate(-165.13)"/><rect class="cls-2" x="1337.45" y="22.32" width="25.51" height="9.33" rx="4.67" transform="matrix(-0.97, -0.26, 0.26, -0.97, 2648.29, 399.45)"/><rect class="cls-3" x="1343.19" y="21.2" width="5.6" height="9.33" transform="translate(2640.3 396.18) rotate(-165.13)"/><rect class="cls-1" x="1402.39" y="24.63" width="3.11" height="3.11" rx="0.98" transform="translate(48.76 393.9) rotate(-16.25)"/><rect class="cls-2" x="1378.05" y="25.35" width="25.51" height="9.33" rx="4.67" transform="translate(47.16 390.38) rotate(-16.25)"/><rect class="cls-3" x="1392.19" y="24.13" width="5.6" height="9.33" transform="translate(47.67 391.5) rotate(-16.25)"/><rect class="cls-1" x="1550.39" y="58.63" width="3.11" height="3.11" rx="0.98" transform="translate(45.16 436.67) rotate(-16.25)"/><rect class="cls-2" x="1526.05" y="59.35" width="25.51" height="9.33" rx="4.67" transform="translate(43.56 433.15) rotate(-16.25)"/><rect class="cls-3" x="1540.19" y="58.13" width="5.6" height="9.33" transform="translate(44.07 434.27) rotate(-16.25)"/><rect class="cls-1" x="1511.69" y="76.03" width="3.11" height="3.11" rx="0.98" transform="translate(2917.23 647.46) rotate(-160.84)"/><rect class="cls-2" x="1513.42" y="77.41" width="25.51" height="9.33" rx="4.67" transform="translate(2940.9 660.44) rotate(-160.84)"/><rect class="cls-3" x="1519.26" y="75.98" width="5.6" height="9.33" transform="matrix(-0.94, -0.33, 0.33, -0.94, 2933.37, 656.31)"/><rect class="cls-1" x="1568.34" y="64.57" width="3.11" height="3.11" rx="0.98" transform="translate(281.09 964.97) rotate(-37.3)"/><rect class="cls-2" x="1546.25" y="69.75" width="25.51" height="9.33" rx="4.67" transform="translate(273.84 960.07) rotate(-37.3)"/><rect class="cls-3" x="1559.67" y="67.11" width="5.6" height="9.33" transform="translate(276.14 961.63) rotate(-37.3)"/><rect class="cls-1" x="1778.36" y="13.53" width="3.11" height="3.11" rx="0.98" transform="translate(70.84 512.46) rotate(-16.71)"/><rect class="cls-2" x="1754.05" y="14.36" width="25.51" height="9.33" rx="4.67" transform="matrix(0.96, -0.29, 0.29, 0.96, 69.15, 508.85)"/><rect class="cls-3" x="1768.18" y="13.11" width="5.6" height="9.33" transform="translate(69.69 510) rotate(-16.71)"/><path class="cls-7" d="M1241.28,45.54a2.32,2.32,0,0,0-2.63,0,5.71,5.71,0,0,0-1.8,2.12c-1.22,2.15-.9,1.35-1.36,3.78-.27,1.46,0,1.75-1.52,2.12a12.21,12.21,0,0,1-4.09.15,2.49,2.49,0,0,1-1.63-.63,2.16,2.16,0,0,1-.47-1,14.52,14.52,0,0,1,.06-4.46,6.92,6.92,0,0,0-.7-4.34c-.81-1.26-2.64-1.95-3.85-1.08s-1.16,2.87-.88,4.45l1,5.31a11.07,11.07,0,0,1,.26,3.34c-.27,2.23-1.82,4-3.16,5.86s-2.57,4-2.07,6.18,2.4,3.52,4.31,4.5a24.63,24.63,0,0,0,11,2.71,5,5,0,0,0,1.77-.21c1.65-.58,2.4-2.47,2.71-4.19a19.54,19.54,0,0,0,0-7.39c-.34-1.7-.9-3.42-.61-5.13a10,10,0,0,1,1.29-3.12c1.65-2.88,2.32-2.57,3-5.82C1242.09,47.56,1242.12,46.26,1241.28,45.54Zm-15.18,1.54a14.9,14.9,0,0,1-1,4.37c.18-.46-.75-2.48-.84-3.1a10.24,10.24,0,0,1-.09-3.36C1224.81,42,1226.2,45.65,1226.1,47.08Zm13.19,3.21a23.38,23.38,0,0,1-2.25,3.79,23.66,23.66,0,0,0,.76-3,17.6,17.6,0,0,1,1.27-3.12C1240.58,45.33,1239.91,49,1239.29,50.29Z"/><path class="cls-6" d="M1225.68,59.51c3.81-.69,6.52.71,9.1,2.37,0,0-.79,8.7-7.12,6.72S1225.68,59.51,1225.68,59.51Z"/><rect class="cls-6" x="962" y="58" width="14" height="14" rx="4.49" transform="matrix(0.81, 0.59, -0.59, 0.81, 221.21, -554.68)"/><polygon class="cls-7" points="965.6 57.75 974.39 69.5 972.24 72.39 963.68 60.41 965.6 57.75"/><rect class="cls-6" x="112" y="58" width="14" height="14" rx="4.49" transform="translate(60.53 -57.34) rotate(35.81)"/><polygon class="cls-7" points="115.6 57.75 124.39 69.5 122.24 72.39 113.68 60.41 115.6 57.75"/><rect class="cls-6" x="134" y="74" width="14" height="14" rx="4.49" transform="translate(-21.61 80.66) rotate(-29.76)"/><polygon class="cls-7" points="132.99 81.1 147.32 77.96 149.06 81.11 134.62 83.94 132.99 81.1"/><rect class="cls-6" x="133.52" y="51.83" width="11.34" height="11.34" rx="4.49" transform="translate(-10.19 76.66) rotate(-29.76)"/><polygon class="cls-7" points="132.7 57.59 144.31 55.04 145.72 57.59 134.02 59.89 132.7 57.59"/><rect class="cls-6" x="987.36" y="55.53" width="12.09" height="12.09" rx="4.49" transform="translate(33 322.84) rotate(-18.77)"/><polygon class="cls-7" points="986.6 60.34 999.27 60.04 1000.22 63 987.51 63.02 986.6 60.34"/><rect class="cls-6" x="1184.36" y="76.53" width="12.09" height="12.09" rx="4.49" transform="translate(36.71 387.33) rotate(-18.77)"/><polygon class="cls-7" points="1183.6 81.34 1196.27 81.04 1197.22 84 1184.51 84.03 1183.6 81.34"/><rect class="cls-6" x="1379.34" y="60.04" width="9.63" height="9.63" rx="4.49" transform="translate(315.54 -817.28) rotate(36.86)"/><polygon class="cls-7" points="1381.91 59.83 1387.8 68.01 1386.29 69.97 1380.56 61.63 1381.91 59.83"/><rect class="cls-6" x="1711.34" y="39.04" width="9.63" height="9.63" rx="4.49" transform="translate(369.3 -1020.61) rotate(36.86)"/><polygon class="cls-7" points="1713.91 38.83 1719.8 47.01 1718.29 48.97 1712.56 40.63 1713.91 38.83"/><rect class="cls-6" x="1841.34" y="74.04" width="9.63" height="9.63" rx="4.49" transform="translate(416.27 -1091.6) rotate(36.86)"/><polygon class="cls-7" points="1843.91 73.83 1849.8 82.01 1848.29 83.97 1842.56 75.63 1843.91 73.83"/><rect class="cls-6" x="822" y="27" width="18" height="18" rx="4.49"/><polygon class="cls-7" points="822 31 840 36.64 839.93 41.27 822 35.21 822 31"/><path class="cls-7" d="M695.94,81.61a2.33,2.33,0,0,0-1.78-1.94,5.71,5.71,0,0,0-2.78.14c-2.41.59-1.6.27-3.68,1.61-1.25.8-1.29,1.18-2.59.34a12.2,12.2,0,0,1-2.91-2.87,2.55,2.55,0,0,1-.66-1.62,2.23,2.23,0,0,1,.43-1.06,14.78,14.78,0,0,1,3.29-3,6.82,6.82,0,0,0,2.67-3.48c.37-1.45-.38-3.26-1.85-3.55s-2.89,1.13-3.84,2.42L679,72.93a11.57,11.57,0,0,1-2.25,2.48c-1.81,1.33-4.2,1.44-6.43,1.71s-4.67.86-5.92,2.73-.92,4.16-.33,6.22a24.66,24.66,0,0,0,5.57,9.87A5.14,5.14,0,0,0,671,97.08c1.55.81,3.44,0,4.91-.9a19.68,19.68,0,0,0,5.35-5.1c1-1.41,1.87-3,3.31-4a9.51,9.51,0,0,1,3.16-1.19c3.22-.79,3.46-.08,6.31-1.78C695,83.58,696,82.71,695.94,81.61Zm-11.53-10a14.82,14.82,0,0,1-3.85,2.28c.46-.18,1.29-2.24,1.68-2.73a10.15,10.15,0,0,1,2.38-2.38C687.22,67.19,685.52,70.71,684.41,71.61Zm6.71,11.8a23.86,23.86,0,0,1-4.31,1,23.68,23.68,0,0,0,2.74-1.54,17.56,17.56,0,0,1,3.14-1.21C695.61,81,692.48,83,691.12,83.41Z"/><path class="cls-6" d="M675.08,79.83c3.11,2.29,3.95,5.23,4.51,8.24,0,0-6.88,5.39-9.78-.57S675.08,79.83,675.08,79.83Z"/><path class="cls-7" d="M41.72,42.64a1.88,1.88,0,0,0-2.09-.54,4.57,4.57,0,0,0-1.85,1.33A5.5,5.5,0,0,0,36,46.18c-.5,1.1-.36,1.38-1.63,1.38A10.21,10.21,0,0,1,31,46.88a2.11,2.11,0,0,1-1.18-.83,1.78,1.78,0,0,1-.17-.92,12,12,0,0,1,.93-3.53,5.67,5.67,0,0,0,.29-3.6,2.35,2.35,0,0,0-2.85-1.62c-1.22.49-1.49,2.07-1.57,3.38l-.29,4.41a9.23,9.23,0,0,1-.45,2.72c-.65,1.72-2.25,2.86-3.67,4s-2.83,2.67-2.87,4.51,1.22,3.28,2.55,4.44A20.35,20.35,0,0,0,30,64.21a4.42,4.42,0,0,0,1.44.18c1.43-.14,2.4-1.5,3-2.81a16,16,0,0,0,1.42-5.89,11.81,11.81,0,0,1,.52-4.21A8.12,8.12,0,0,1,38,49.25c1.88-2,2.35-1.59,3.56-4A2.58,2.58,0,0,0,41.72,42.64ZM29.33,40.87a12.5,12.5,0,0,1-1.64,3.29c.23-.33-.11-2.12-.06-2.63a8.27,8.27,0,0,1,.59-2.7C29.3,36.58,29.69,39.76,29.33,40.87ZM39.2,46a20,20,0,0,1-2.54,2.58,20,20,0,0,0,1.21-2.28,13.65,13.65,0,0,1,1.62-2.23C41.2,42.33,40,45.12,39.2,46Z"/><path class="cls-6" d="M26.55,50.69c3.16.2,5,1.85,6.77,3.68,0,0-2.34,6.77-7,4S26.55,50.69,26.55,50.69Z"/><path class="cls-7" d="M552.71,50a1.61,1.61,0,0,0-1.65.82,3.76,3.76,0,0,0-.45,1.9,4.63,4.63,0,0,0,.36,2.79c.29,1,.54,1.1-.28,1.81a8.6,8.6,0,0,1-2.51,1.4,1.79,1.79,0,0,1-1.22.13,1.58,1.58,0,0,1-.62-.5,10.15,10.15,0,0,1-1.38-2.8A4.87,4.87,0,0,0,543.13,53a2,2,0,0,0-2.75.55c-.51,1,.2,2.17.88,3.06l2.29,3a7.87,7.87,0,0,1,1.23,2c.54,1.48.15,3.11-.11,4.66s-.33,3.32.68,4.52a5.26,5.26,0,0,0,4.13,1.44,17.2,17.2,0,0,0,7.74-1.82,3.45,3.45,0,0,0,1-.69c.85-.89.71-2.31.36-3.49a13.94,13.94,0,0,0-2.39-4.6,10,10,0,0,1-2-3,6.69,6.69,0,0,1-.18-2.36c.1-2.33.62-2.35,0-4.6C553.86,51,553.46,50.15,552.71,50Zm-9,5.8a10.7,10.7,0,0,1,.78,3c0-.35-1.26-1.32-1.51-1.67a7.09,7.09,0,0,1-1.13-2.07C541.29,53,543.33,54.85,543.72,55.77Zm9.26-2.2a16.45,16.45,0,0,1-.2,3.08,15.71,15.71,0,0,0-.49-2.14,11.6,11.6,0,0,1-.2-2.35C552.2,50.06,553,52.57,553,53.57Z"/><path class="cls-6" d="M547.42,63.67c2.16-1.65,4.3-1.64,6.44-1.42,0,0,2.28,5.68-2.3,6.46S547.42,63.67,547.42,63.67Z"/><path class="cls-8" d="M1918,.48c-61.6-5.3-211.5,35-323.5,36.22s-345-24.41-473-23.62-324,35-734,33.29c-132-1.74-155-38.52-390-35V112H1919Z"/></g></g></svg>