<svg xmlns="http://www.w3.org/2000/svg" xmlns:xlink="http://www.w3.org/1999/xlink" viewBox="0 0 800 437"><defs><style>.cls-1{fill:none}.cls-9{fill:#009c90}.cls-18{fill:#80ef62}</style><clipPath id="clip-path"><path class="cls-1" transform="rotate(-180 264.53 -1740.93)" d="M-135.47-2000.94h800v520h-800z"/></clipPath><linearGradient id="Dégradé_sans_nom_8" x1="-3016.83" y1="-1782.11" x2="-4003.02" y2="-73.97" gradientTransform="matrix(-1 0 0 1 -2829.57 0)" gradientUnits="userSpaceOnUse"><stop offset="0" stop-color="#c7b299"/><stop offset=".05" stop-color="#c6b6a4"/><stop offset=".2" stop-color="#c5c0c1"/><stop offset=".36" stop-color="#c4c7d7"/><stop offset=".53" stop-color="#c3cde7"/><stop offset=".73" stop-color="#c2d0f0"/><stop offset="1" stop-color="#c2d1f3"/></linearGradient><clipPath id="clip-path-2"><path class="cls-1" d="M7.85-822.45h960v600h-960z"/></clipPath><linearGradient id="Dégradé_sans_nom_89" x1="599.54" y1="-699.66" x2="1338.16" y2="1329.66" gradientUnits="userSpaceOnUse"><stop offset="0" stop-color="#15d86f"/><stop offset=".07" stop-color="#0ec97d"/><stop offset=".19" stop-color="#06b78f"/><stop offset=".31" stop-color="#02ad9a"/><stop offset=".45" stop-color="#00a99d"/></linearGradient><clipPath id="clip-path-3"><path class="cls-1" transform="rotate(-180 -577 -1750.62)" d="M-977-2010.62h800v520h-800z"/></clipPath><linearGradient id="Dégradé_sans_nom_107" x1="-2175.3" y1="-1791.79" x2="-3161.49" y2="-83.65" gradientTransform="matrix(-1 0 0 1 -2829.57 0)" gradientUnits="userSpaceOnUse"><stop offset="0" stop-color="#c7b299"/><stop offset=".05" stop-color="#b1b794"/><stop offset=".15" stop-color="#88bf8a"/><stop offset=".26" stop-color="#64c782"/><stop offset=".38" stop-color="#47cd7b"/><stop offset=".5" stop-color="#31d276"/><stop offset=".64" stop-color="#21d572"/><stop offset=".79" stop-color="#18d770"/><stop offset="1" stop-color="#15d86f"/></linearGradient><linearGradient id="Dégradé_sans_nom_288" x1="575.94" y1="240.2" x2="575.94" y2="141.15" gradientUnits="userSpaceOnUse"><stop offset="0" stop-color="#22b573"/><stop offset=".25" stop-color="#25b772"/><stop offset=".45" stop-color="#2fbd71"/><stop offset=".63" stop-color="#3fc76e"/><stop offset=".79" stop-color="#57d669"/><stop offset=".95" stop-color="#74e864"/><stop offset="1" stop-color="#80ef62"/></linearGradient><clipPath id="clip-path-4"><path class="cls-1" d="M-.15-83.26h800v520h-800z"/></clipPath><linearGradient id="Dégradé_sans_nom_138" x1="477.13" y1="135.57" x2="-509.07" y2="1843.71" gradientUnits="userSpaceOnUse"><stop offset="0" stop-color="#80ef62"/><stop offset=".04" stop-color="#62e966"/><stop offset=".11" stop-color="#2bdd6c"/><stop offset=".14" stop-color="#15d86f"/></linearGradient><linearGradient id="Dégradé_sans_nom_288-2" x1="173.46" y1="145.77" x2="173.46" y2=".19" xlink:href="#Dégradé_sans_nom_288"/><linearGradient id="Dégradé_sans_nom_288-3" x1="68.82" y1="244.84" x2="68.82" y2="99.26" xlink:href="#Dégradé_sans_nom_288"/><linearGradient id="Dégradé_sans_nom_288-4" x1="225.08" y1="305.55" x2="225.08" y2="138.04" xlink:href="#Dégradé_sans_nom_288"/><linearGradient id="Dégradé_sans_nom_288-5" x1="524.68" y1="337.22" x2="524.68" y2="216.86" xlink:href="#Dégradé_sans_nom_288"/><linearGradient id="Dégradé_sans_nom_288-6" x1="395.2" y1="276.23" x2="395.2" y2="130.65" xlink:href="#Dégradé_sans_nom_288"/><linearGradient id="Dégradé_sans_nom_284" x1="350.04" y1="111.33" x2="350.04" y2="15.76" gradientUnits="userSpaceOnUse"><stop offset="0" stop-color="#22b573"/><stop offset=".17" stop-color="#28b972"/><stop offset=".41" stop-color="#3ac46f"/><stop offset=".69" stop-color="#57d569"/><stop offset=".99" stop-color="#7eee62"/><stop offset="1" stop-color="#80ef62"/></linearGradient><clipPath id="clip-path-5"><path class="cls-1" d="M7.85-824.45h960v600h-960z"/></clipPath><linearGradient id="Dégradé_sans_nom_89-2" x1="599.54" y1="-701.66" x2="1338.16" y2="1327.66" xlink:href="#Dégradé_sans_nom_89"/><clipPath id="clip-path-6"><path class="cls-1" transform="rotate(-180 1447.85 -524.45)" d="M967.85-824.45h960v600h-960z"/></clipPath><linearGradient id="Dégradé_sans_nom_121" x1="1336.16" y1="-701.66" x2="597.54" y2="1327.66" gradientUnits="userSpaceOnUse"><stop offset="0" stop-color="#c7b299"/><stop offset=".05" stop-color="#a5b391"/><stop offset=".11" stop-color="#7db388"/><stop offset=".17" stop-color="#5cb480"/><stop offset=".24" stop-color="#43b47a"/><stop offset=".3" stop-color="#30b576"/><stop offset=".37" stop-color="#26b574"/><stop offset=".45" stop-color="#22b573"/></linearGradient><clipPath id="clip-path-7"><path class="cls-1" d="M7.85-745.26h800v520h-800z"/></clipPath><linearGradient id="Dégradé_sans_nom_138-2" x1="485.13" y1="-526.43" x2="-501.07" y2="1181.71" xlink:href="#Dégradé_sans_nom_138"/></defs><g id="Biome"><g clip-path="url(#clip-path)"><circle cx="680.35" cy="-928.04" r="986.03" fill="url(#Dégradé_sans_nom_8)"/></g><g clip-path="url(#clip-path-2)"><circle cx="968.85" cy="315" r="1079.49" fill="url(#Dégradé_sans_nom_89)"/></g><g clip-path="url(#clip-path-3)"><circle cx="-161.18" cy="-937.72" r="986.03" fill="url(#Dégradé_sans_nom_107)"/></g><path d="M575.61 141.15c12.9 0 38.43 66 0 99-36.9-31.15-12.9-99 0-99z" fill="url(#Dégradé_sans_nom_288)"/><rect class="cls-9" x="573.39" y="176.87" width="4.37" height="82.89" rx="2.18"/><g clip-path="url(#clip-path-4)"><circle cx="-15.97" cy="989.64" r="986.03" fill="url(#Dégradé_sans_nom_138)"/></g><path d="M173 .19c19 0 56.48 97.05 0 145.58C118.74 99.89 154 .19 173 .19z" fill="url(#Dégradé_sans_nom_288-2)"/><rect class="cls-9" x="169.71" y="52.69" width="6.42" height="121.83" rx="3.21"/><path d="M68.33 99.26c19 0 56.48 97.06 0 145.58-54.24-45.84-18.96-145.58 0-145.58z" fill="url(#Dégradé_sans_nom_288-3)"/><rect class="cls-9" x="65.07" y="151.76" width="6.42" height="121.83" rx="3.21"/><path d="M224.52 138c21.81 0 65 111.67 0 167.51-62.41-52.75-21.82-167.51 0-167.51z" fill="url(#Dégradé_sans_nom_288-4)"/><rect class="cls-9" x="220.76" y="198.45" width="7.39" height="140.17" rx="3.21"/><path d="M524.28 216.86c15.68 0 46.7 80.24 0 120.36-44.84-37.93-15.68-120.36 0-120.36z" fill="url(#Dégradé_sans_nom_288-5)"/><rect class="cls-9" x="521.58" y="260.27" width="5.31" height="100.72" rx="2.66"/><path d="M394.71 130.65c19 0 56.48 97 0 145.58-54.24-45.88-18.96-145.58 0-145.58z" fill="url(#Dégradé_sans_nom_288-6)"/><rect class="cls-9" x="391.45" y="183.15" width="6.42" height="121.83" rx="3.21"/><path d="M349.72 15.76c12.45 0 37.08 63.71 0 95.57-35.61-30.12-12.45-95.57 0-95.57z" fill="url(#Dégradé_sans_nom_284)"/><rect class="cls-9" x="347.58" y="50.23" width="4.22" height="79.98" rx="2.11"/><path class="cls-18" d="M496 308.45h-18.79c.17-3.46-.85-7.29-4.36-11.9 3.75 1.63 8.86 7 10 6.74s2.21-8.41 5.28-11c.18 4.06 4 10.57 4.89 10.44s5.1-6.27 8.86-6.87a20.42 20.42 0 0 0-5.88 12.59zM121 216.63h18.77c-.17-3.46.85-7.29 4.36-11.89-3.75 1.63-8.85 7-10 6.74s-2.22-8.42-5.29-11c-.18 4.05-4 10.57-4.89 10.44s-5.09-6.27-8.86-6.88a20.37 20.37 0 0 1 5.91 12.59zM24.71 23.38h8.87a8.39 8.39 0 0 1 2.06-5.62c-1.77.77-4.18 3.31-4.75 3.18s-1-4-2.5-5.18c-.08 1.91-1.87 5-2.31 4.93s-2.4-3-4.18-3.25a9.73 9.73 0 0 1 2.81 5.94zM84.94 58h12.32c-.12-2.27.56-4.79 2.86-7.81-2.46 1.07-5.81 4.6-6.6 4.42s-1.45-5.52-3.47-7.2c-.11 2.66-2.6 6.94-3.21 6.85S83.5 50.14 81 49.74A13.44 13.44 0 0 1 84.94 58zM259.57 138.27h13.33c-.12-2.46.61-5.18 3.1-8.45-2.66 1.16-6.29 5-7.13 4.79s-1.58-6-3.76-7.8c-.12 2.89-2.82 7.51-3.47 7.42s-3.62-4.45-6.29-4.88a14.45 14.45 0 0 1 4.22 8.92zM329.07 157.47h13.28c-.12-2.45.61-5.16 3.09-8.42-2.66 1.16-6.27 5-7.11 4.77s-1.57-5.95-3.74-7.76c-.12 2.87-2.81 7.48-3.46 7.39s-3.6-4.44-6.26-4.87a14.43 14.43 0 0 1 4.2 8.89zM610.88 341.82h18.77c-.17-3.46.85-7.29 4.36-11.9-3.75 1.63-8.86 7-10 6.74s-2.21-8.41-5.28-11c-.18 4.06-4 10.57-4.89 10.44s-5.09-6.27-8.86-6.87a20.37 20.37 0 0 1 5.9 12.59zM314.66 308.45H295.9c.16-3.46-.86-7.29-4.37-11.9 3.75 1.63 8.86 7 10.05 6.74s2.21-8.41 5.29-11c.17 4.06 4 10.57 4.89 10.44s5.09-6.27 8.85-6.87a20.42 20.42 0 0 0-5.95 12.59zM163.77 296.76H145c.17-3.46-.86-7.29-4.36-11.9 3.75 1.64 8.85 7 10 6.75s2.21-8.42 5.29-11c.17 4.05 4 10.57 4.89 10.44s5.09-6.28 8.85-6.88a20.35 20.35 0 0 0-5.9 12.59zM414.07 355.19h-18.76c.17-3.46-.86-7.29-4.37-11.9 3.75 1.64 8.86 7 10.05 6.74s2.21-8.41 5.29-11c.17 4.06 4 10.58 4.89 10.45s5.09-6.28 8.85-6.88a20.42 20.42 0 0 0-5.95 12.59zM41.59 313.07h18.77c-.17-3.46.85-7.29 4.36-11.9-3.75 1.63-8.85 7-10 6.74s-2.22-8.41-5.29-11c-.18 4.06-4 10.57-4.89 10.44s-5.09-6.27-8.86-6.87a20.37 20.37 0 0 1 5.91 12.59zM329.2 232.76h-18.77c.17-3.46-.85-7.29-4.36-11.9 3.75 1.63 8.86 7 10.05 6.74s2.21-8.41 5.28-11c.18 4.06 4 10.57 4.9 10.44s5.09-6.27 8.85-6.87a20.42 20.42 0 0 0-5.95 12.59z"/><g clip-path="url(#clip-path-5)"><circle cx="968.85" cy="313" r="1079.49" fill="url(#Dégradé_sans_nom_89-2)"/></g><g clip-path="url(#clip-path-6)"><circle cx="966.85" cy="313" r="1079.49" fill="url(#Dégradé_sans_nom_121)"/></g><g clip-path="url(#clip-path-7)"><circle cx="-7.97" cy="327.64" r="986.03" fill="url(#Dégradé_sans_nom_138-2)"/></g></g></svg>